s 1
o 
g 
usemtl Layer_Layer0
v 42.5 -37.5 1.6
v -42.5 37.5 1.6
v -42.5 -37.5 1.6
vn 8.29402e-17 0 1
f 1//1 2//1 3//1 
v 42.5 37.5 1.6
f 2//1 1//1 4//1 
v -42.5 37.5 5.63993e-15
v -7.49155 3.75629 4.93494e-15
v -42.5 -37.5 5.63993e-15
vn -1.6588e-16 0 -1
f 5//2 6//2 7//2 
v 42.5 37.5 -8.4599e-15
f 6//2 5//2 8//2 
v -7.49882 -3.7437 -2.81997e-15
f 7//2 6//2 9//2 
v -0.992729 7.5 1.40998e-15
f 6//2 8//2 10//2 
v 5.49882 3.7437 -6.34492e-15
f 10//2 8//2 11//2 
v 42.5 -37.5 -8.4599e-15
f 9//2 12//2 7//2 
v -1.00727 -7.5 -5.63993e-15
f 12//2 9//2 13//2 
v 5.49155 -3.75629 -1.19849e-14
f 12//2 13//2 14//2 
f 12//2 14//2 11//2 
f 12//2 11//2 8//2 
vn -1 0 2.81997e-14
f 2//3 7//3 3//3 
f 7//3 2//3 5//3 
vn 0 -1 0
f 1//4 7//4 12//4 
f 7//4 1//4 3//4 
vn 1 0 0
f 8//5 1//5 12//5 
f 1//5 8//5 4//5 
vn 0 1 0
f 5//6 4//6 8//6 
f 4//6 5//6 2//6 
v -7.49155 3.75629 -15
v -3.05512 0.491244 -15
v -3.09329 0.00629671 -15
vn -4.33919e-16 2.51084e-16 -1
f 15//7 16//7 17//7 
v -2.94156 0.964249 -15
f 16//7 15//7 18//7 
v -0.992729 7.5 -15
f 18//7 15//7 19//7 
v -2.75541 1.41367 -15
f 18//7 19//7 20//7 
v -2.50124 1.82843 -15
f 20//7 19//7 21//7 
v -2.18532 2.19833 -15
f 21//7 19//7 22//7 
v -1.81542 2.51425 -15
f 22//7 19//7 23//7 
v -1.40066 2.76842 -15
f 23//7 19//7 24//7 
v -0.951238 2.95457 -15
f 24//7 19//7 25//7 
v -0.478232 3.06813 -15
f 25//7 19//7 26//7 
v 5.49882 3.7437 -15
f 26//7 19//7 27//7 
v 0.0067144 3.1063 -15
f 26//7 27//7 28//7 
v 0.491661 3.06813 -15
f 28//7 27//7 29//7 
v 0.964667 2.95457 -15
f 29//7 27//7 30//7 
v 1.41408 2.76842 -15
f 30//7 27//7 31//7 
v 1.82885 2.51425 -15
f 31//7 27//7 32//7 
v 2.19875 2.19833 -15
f 32//7 27//7 33//7 
v 2.51467 1.82843 -15
f 33//7 27//7 34//7 
v 2.76883 1.41367 -15
f 34//7 27//7 35//7 
v 2.95499 0.964249 -15
f 35//7 27//7 36//7 
v 3.06855 0.491244 -15
f 36//7 27//7 37//7 
v 3.10671 0.00629671 -15
f 37//7 27//7 38//7 
v 5.49155 -3.75629 -15
f 38//7 27//7 39//7 
v -1.00727 -7.5 -15
v -7.49882 -3.7437 -15
f 15//7 40//7 41//7 
v -2.94156 -0.951656 -15
f 40//7 15//7 42//7 
v -3.05512 -0.47865 -15
f 42//7 15//7 43//7 
f 43//7 15//7 17//7 
v -2.75541 -1.40107 -15
f 40//7 42//7 44//7 
v -2.50124 -1.81584 -15
f 40//7 44//7 45//7 
v -2.18532 -2.18573 -15
f 40//7 45//7 46//7 
v -1.81542 -2.50166 -15
f 40//7 46//7 47//7 
v -1.40066 -2.75582 -15
f 40//7 47//7 48//7 
v -0.951238 -2.94198 -15
f 40//7 48//7 49//7 
v -0.478232 -3.05554 -15
f 40//7 49//7 50//7 
f 40//7 50//7 39//7 
v 0.0067144 -3.0937 -15
f 39//7 50//7 51//7 
v 0.491661 -3.05554 -15
f 39//7 51//7 52//7 
v 0.964667 -2.94198 -15
f 39//7 52//7 53//7 
v 1.41408 -2.75582 -15
f 39//7 53//7 54//7 
v 1.82885 -2.50166 -15
f 39//7 54//7 55//7 
v 2.19875 -2.18573 -15
f 39//7 55//7 56//7 
v 2.51467 -1.81584 -15
f 39//7 56//7 57//7 
v 2.76883 -1.40107 -15
f 39//7 57//7 58//7 
v 2.95499 -0.951656 -15
f 39//7 58//7 59//7 
v 3.06855 -0.47865 -15
f 39//7 59//7 60//7 
f 39//7 60//7 38//7 
vn 0.500839 0.86554 -9.87794e-17
f 10//8 27//8 19//8 
f 27//8 10//8 11//8 
vn 1 -0.000969441 -1.87969e-16
f 27//9 14//9 39//9 
f 14//9 27//9 11//9 
vn 0.49916 -0.86651 -2.84832e-16
f 14//10 40//10 39//10 
f 40//10 14//10 13//10 
vn -0.500839 -0.86554 2.82695e-16
f 13//11 41//11 40//11 
f 41//11 13//11 9//11 
v -7.49593 -0.759027 -7.29293
vn -1 0.000969441 7.52022e-16
f 9//12 61//12 41//12 
v -7.49585 -0.679107 -7.09999
f 61//12 9//12 62//12 
f 62//12 9//12 6//12 
v -7.49596 -0.786287 -7.49999
f 41//12 61//12 63//12 
v -7.49573 -0.551972 -6.9343
f 62//12 6//12 64//12 
v -7.49557 -0.386287 -6.80717
f 64//12 6//12 65//12 
v -7.49538 -0.193342 -6.72725
f 65//12 6//12 66//12 
v -7.49518 0.0137131 -6.69999
f 66//12 6//12 67//12 
v -7.49498 0.220768 -6.72725
f 67//12 6//12 68//12 
v -7.49479 0.413713 -6.80717
f 68//12 6//12 69//12 
v -7.49463 0.579398 -6.9343
f 69//12 6//12 70//12 
v -7.49451 0.706533 -7.09999
f 70//12 6//12 71//12 
v -7.49443 0.786453 -7.29293
f 71//12 6//12 72//12 
v -7.4944 0.813713 -7.49999
f 72//12 6//12 73//12 
v -7.49585 -0.679107 -7.89999
f 41//12 74//12 15//12 
v -7.49593 -0.759027 -7.70704
f 74//12 41//12 75//12 
f 75//12 41//12 63//12 
v -7.49573 -0.551972 -8.06567
f 15//12 74//12 76//12 
v -7.49557 -0.386287 -8.19281
f 15//12 76//12 77//12 
v -7.49538 -0.193342 -8.27273
f 15//12 77//12 78//12 
v -7.49518 0.0137131 -8.29999
f 15//12 78//12 79//12 
v -7.49498 0.220768 -8.27273
f 15//12 79//12 80//12 
v -7.49479 0.413713 -8.19281
f 15//12 80//12 81//12 
v -7.49463 0.579398 -8.06567
f 15//12 81//12 82//12 
v -7.49451 0.706533 -7.89999
f 15//12 82//12 83//12 
v -7.49443 0.786453 -7.70704
f 15//12 83//12 84//12 
f 15//12 84//12 73//12 
f 15//12 73//12 6//12 
vn -0.49916 0.86651 3.68777e-16
f 6//13 19//13 15//13 
f 19//13 6//13 10//13 
v -3.08716 0.782181 -7.29293
vn -0.000936409 -0.965925 -0.258819
vn -0.000839561 -0.866025 -0.5
f 85//14 71//15 72//14 
v -3.08724 0.70226 -7.09999
f 71//15 85//14 86//15 
v -3.08713 0.80944 -7.49999
vn -0.000969441 -1 9.60618e-15
vn -0.000969441 -1 7.66355e-15
f 85//14 73//16 87//17 
f 73//16 85//14 72//14 
v -3.08716 0.782181 -7.70704
vn -0.000936409 -0.965925 0.258819
f 88//18 73//16 84//18 
f 73//16 88//18 87//17 
v -3.08724 0.70226 -7.89999
vn -0.000839561 -0.866025 0.5
f 88//18 83//19 89//19 
f 83//19 88//18 84//18 
v -3.08736 0.575126 -8.06567
vn -0.000685499 -0.707106 0.707107
f 89//19 82//20 90//20 
f 82//20 89//19 83//19 
v -3.08752 0.40944 -8.19281
vn -0.000484721 -0.5 0.866025
f 91//21 82//20 81//21 
f 82//20 91//21 90//20 
v -3.08771 0.216496 -8.27273
vn -0.000279716 -0.259271 0.965804
vn -0.000278943 -0.258235 0.966082
f 92//22 81//21 80//23 
f 81//21 92//22 91//21 
v -3.09329 0.00558094 -8.29999
vn 1.85667e-06 0.00131898 0.999999
vn 1.59808e-06 0.00113532 0.999999
f 93//24 80//23 79//25 
f 80//23 93//24 92//22 
v -3.08811 -0.197615 -8.27273
vn 0.000281387 0.260467 0.965483
vn 0.0002806 0.259402 0.965769
f 94//26 79//25 78//27 
f 79//25 94//26 93//24 
v -3.08829 -0.390559 -8.19281
vn 0.000484721 0.5 0.866025
f 95//28 78//27 77//28 
f 78//27 95//28 94//26 
v -3.08846 -0.556245 -8.06567
vn 0.000685499 0.707106 0.707107
f 96//29 77//28 76//29 
f 77//28 96//29 95//28 
v -3.08858 -0.683379 -7.89999
vn 0.000839561 0.866025 0.5
f 76//29 97//30 96//29 
f 97//30 76//29 74//30 
vn 0.000936409 0.965925 0.258819
f 75//31 97//30 74//30 
v -3.08866 -0.7633 -7.70704
f 97//30 75//31 98//31 
v -3.08868 -0.790559 -7.49999
vn 0.000969441 1 -6.54967e-15
f 75//31 99//32 98//31 
vn 0.000969441 1 -5.2932e-15
f 99//32 75//31 63//33 
vn 0.000936409 0.965925 -0.258819
f 61//34 99//32 63//33 
v -3.08866 -0.7633 -7.29293
f 99//32 61//34 100//34 
v -3.08858 -0.683379 -7.09999
vn 0.000839561 0.866025 -0.5
f 61//34 101//35 100//34 
f 101//35 61//34 62//35 
vn 0.000685499 0.707106 -0.707107
f 64//36 101//35 62//35 
v -3.08846 -0.556245 -6.9343
f 101//35 64//36 102//36 
vn 0.000484721 0.5 -0.866025
f 65//37 102//36 64//36 
v -3.08829 -0.390559 -6.80717
f 102//36 65//37 103//37 
vn 0.0002806 0.259402 -0.965769
f 66//38 103//37 65//37 
v -3.08811 -0.197615 -6.72725
vn 0.000281387 0.260467 -0.965483
f 103//37 66//38 104//39 
vn 1.59808e-06 0.00113532 -0.999999
f 67//40 104//39 66//38 
v -3.09329 0.00558094 -6.69999
vn 1.85667e-06 0.00131898 -0.999999
f 104//39 67//40 105//41 
vn -0.000278943 -0.258235 -0.966082
f 68//42 105//41 67//40 
v -3.08771 0.216496 -6.72725
vn -0.000279716 -0.259271 -0.965804
f 105//41 68//42 106//43 
vn -0.000484721 -0.5 -0.866025
f 69//44 106//43 68//42 
v -3.08752 0.40944 -6.80717
f 106//43 69//44 107//44 
vn -0.000685499 -0.707106 -0.707107
f 70//45 107//44 69//44 
v -3.08736 0.575126 -6.9343
f 107//44 70//45 108//45 
f 86//15 70//45 71//15 
f 70//45 86//15 108//45 
v -3.05512 0.491244 7.04992e-15
v -3.05512 -0.47865 7.04992e-15
v -3.09329 0.00629671 2.81997e-15
vn -5.07008e-16 1.23539e-16 -1
f 109//46 110//46 111//46 
v -2.94156 0.964249 7.04992e-16
f 110//46 109//46 112//46 
v -2.94156 -0.951656 7.04992e-16
f 110//46 112//46 113//46 
v -2.75541 1.41367 -7.04992e-16
f 113//46 112//46 114//46 
v -2.75541 -1.40107 -7.04992e-16
f 113//46 114//46 115//46 
v -2.50124 1.82843 4.93494e-15
f 115//46 114//46 116//46 
v -2.50124 -1.81584 4.93494e-15
f 115//46 116//46 117//46 
v -2.18532 2.19833 7.04992e-15
f 117//46 116//46 118//46 
v -2.18532 -2.18573 7.04992e-15
f 117//46 118//46 119//46 
v -1.81542 2.51425 -6.34492e-15
f 119//46 118//46 120//46 
v -1.81542 -2.50166 -6.34492e-15
f 119//46 120//46 121//46 
v -1.40066 2.76842 0
f 121//46 120//46 122//46 
v -1.40066 -2.75582 0
f 121//46 122//46 123//46 
v -0.951238 2.95457 4.22995e-15
f 123//46 122//46 124//46 
v -0.951238 -2.94198 4.22995e-15
f 123//46 124//46 125//46 
v -0.478232 3.06813 3.52496e-15
f 125//46 124//46 126//46 
v -0.478232 -3.05554 -4.22995e-15
f 125//46 126//46 127//46 
v 0.0067144 -3.0937 -8.4599e-15
f 127//46 126//46 128//46 
v 0.0067144 3.1063 -8.4599e-15
f 128//46 126//46 129//46 
v 0.491661 3.06813 7.75491e-15
f 128//46 129//46 130//46 
v 0.491661 -3.05554 7.75491e-15
f 128//46 130//46 131//46 
v 0.964667 2.95457 5.63993e-15
f 131//46 130//46 132//46 
v 0.964667 -2.94198 5.63993e-15
f 131//46 132//46 133//46 
v 1.41408 2.76842 -5.63993e-15
f 133//46 132//46 134//46 
v 1.41408 -2.75582 -5.63993e-15
f 133//46 134//46 135//46 
v 1.82885 2.51425 1.40998e-15
f 135//46 134//46 136//46 
v 1.82885 -2.50166 1.40998e-15
f 135//46 136//46 137//46 
v 2.19875 2.19833 -1.40998e-15
f 137//46 136//46 138//46 
v 2.19875 -2.18573 -1.40998e-15
f 137//46 138//46 139//46 
v 2.51467 1.82843 -2.11497e-15
f 139//46 138//46 140//46 
v 2.51467 -1.81584 -2.11497e-15
f 139//46 140//46 141//46 
v 2.76883 1.41367 -7.04992e-15
f 141//46 140//46 142//46 
v 2.76883 -1.40107 -7.04992e-15
f 141//46 142//46 143//46 
v 2.95499 0.964249 1.40998e-15
f 143//46 142//46 144//46 
v 2.95499 -0.951656 1.40998e-15
f 143//46 144//46 145//46 
v 3.06855 0.491244 1.40998e-15
f 145//46 144//46 146//46 
v 3.06855 -0.47865 1.40998e-15
f 145//46 146//46 147//46 
v 3.10671 0.00629671 8.4599e-15
f 147//46 146//46 148//46 
vn 0.156434 -0.987688 -1.64282e-19
vn 0.309017 -0.951057 2.52652e-16
f 126//47 25//48 26//47 
f 25//48 126//47 124//48 
vn 1.93196e-15 -1 -2.94855e-17
f 28//49 126//47 26//47 
vn 1.16981e-15 -1 -2.94855e-17
f 126//47 28//49 129//50 
vn -0.156434 -0.987688 -1.39568e-16
f 130//51 28//49 29//51 
f 28//49 130//51 129//50 
vn -0.309017 -0.951057 -2.54037e-16
f 132//52 29//51 30//52 
f 29//51 132//52 130//51 
vn -0.45399 -0.891007 -3.40823e-16
f 134//53 30//52 31//53 
f 30//52 134//53 132//52 
vn -0.587785 -0.809017 -1.97117e-16
f 32//54 134//53 31//53 
f 134//53 32//54 136//54 
vn -0.707107 -0.707107 7.12471e-17
f 138//55 32//54 33//55 
f 32//54 138//55 136//54 
vn -0.809017 -0.587785 2.32613e-16
f 138//55 34//56 140//56 
f 34//56 138//55 33//55 
vn -0.891007 -0.45399 5.09685e-16
f 140//56 35//57 142//57 
f 35//57 140//56 34//56 
vn -0.951057 -0.309017 3.48707e-16
f 142//57 36//58 144//58 
f 36//58 142//57 35//57 
vn -0.987688 -0.156434 -2.81819e-16
f 144//58 37//59 146//59 
f 37//59 144//58 36//58 
vn -1 -2.30417e-16 -5.63821e-16
vn -1 -2.25986e-16 -5.63821e-16
f 146//59 38//60 148//61 
f 38//60 146//59 37//59 
vn -0.987688 0.156434 -2.81819e-16
f 148//61 60//62 147//62 
f 60//62 148//61 38//60 
vn -0.951057 0.309017 3.48707e-16
f 147//62 59//63 145//63 
f 59//63 147//62 60//62 
vn -0.891007 0.45399 5.09685e-16
f 145//63 58//64 143//64 
f 58//64 145//63 59//63 
vn -0.809017 0.587785 3.76312e-16
f 143//64 57//65 141//65 
f 57//65 143//64 58//64 
vn -0.707107 0.707107 3.37272e-16
f 141//65 56//66 139//66 
f 56//66 141//65 57//65 
vn -0.587785 0.809017 -7.4791e-17
f 55//67 139//66 56//66 
f 139//66 55//67 137//67 
vn -0.45399 0.891007 -3.41111e-16
f 135//68 55//67 54//68 
f 55//67 135//68 137//67 
vn -0.309017 0.951057 -2.54174e-16
f 133//69 54//68 53//69 
f 54//68 133//69 135//68 
vn -0.156434 0.987688 -1.39475e-16
f 52//70 133//69 53//69 
f 133//69 52//70 131//70 
vn 1.68825e-15 1 -2.21973e-17
f 51//71 131//70 52//70 
vn 5.27301e-16 1 -2.21973e-17
f 131//70 51//71 128//72 
vn 0.156434 0.987688 2.95748e-17
f 127//73 51//71 50//73 
f 51//71 127//73 128//72 
vn 0.309017 0.951057 2.75043e-16
f 49//74 127//73 50//73 
f 127//73 49//74 125//74 
vn 0.45399 0.891007 5.97965e-16
f 123//75 49//74 48//75 
f 49//74 123//75 125//74 
vn 0.587785 0.809017 -2.21916e-17
f 47//76 123//75 48//75 
f 123//75 47//76 121//76 
vn 0.707107 0.707107 -5.81982e-16
f 119//77 47//76 46//77 
f 47//76 119//77 121//76 
vn 0.809017 0.587785 2.72872e-17
f 45//78 119//77 46//77 
f 119//77 45//78 117//78 
vn 0.891007 0.45399 -1.06475e-16
f 44//79 117//78 45//78 
f 117//78 44//79 115//79 
vn 0.951057 0.309017 -7.1493e-16
f 42//80 115//79 44//79 
f 115//79 42//80 113//80 
vn 0.987684 0.156464 1.60225e-12
f 43//81 113//80 42//80 
f 113//80 43//81 110//81 
vn 1 5.23848e-05 8.39235e-14
f 17//82 110//81 43//81 
vn 1 6.03891e-05 8.42409e-14
f 110//81 17//82 93//83 
vn 1 6.03891e-05 8.42409e-14
vn 1 5.23848e-05 8.39235e-14
f 110//81 105//84 111//85 
f 105//84 110//81 93//83 
f 17//82 105//84 93//83 
f 105//84 17//82 111//85 
vn 0.987693 -0.156407 -1.51886e-12
f 111//85 17//82 16//86 
f 111//85 16//86 109//86 
vn 0.951057 -0.309017 -7.1493e-16
f 18//87 109//86 16//86 
f 109//86 18//87 112//87 
vn 0.891007 -0.45399 -1.06475e-16
f 20//88 112//87 18//87 
f 112//87 20//88 114//88 
vn 0.809017 -0.587785 2.72872e-17
f 21//89 114//88 20//88 
f 114//88 21//89 116//89 
vn 0.707107 -0.707107 -5.81982e-16
f 22//90 116//89 21//89 
f 116//89 22//90 118//90 
vn 0.587785 -0.809017 -2.21916e-17
f 120//91 22//90 23//91 
f 22//90 120//91 118//90 
vn 0.45399 -0.891007 5.97965e-16
f 122//92 23//91 24//92 
f 23//91 122//92 120//91 
f 25//48 122//92 24//92 
f 122//92 25//48 124//48 
vn -0.999982 0.00599579 -6.73247e-15
f 106//93 93//93 105//93 
f 93//93 106//93 92//93 
f 92//93 106//93 107//93 
f 92//93 107//93 91//93 
f 91//93 107//93 108//93 
f 91//93 108//93 90//93 
f 90//93 108//93 86//93 
f 90//93 86//93 89//93 
f 89//93 86//93 85//93 
f 89//93 85//93 88//93 
f 88//93 85//93 87//93 
vn -0.999992 -0.00405931 -1.25986e-15
f 100//94 98//94 99//94 
f 98//94 100//94 101//94 
f 98//94 101//94 97//94 
f 97//94 101//94 102//94 
f 97//94 102//94 96//94 
f 96//94 102//94 103//94 
f 96//94 103//94 95//94 
f 95//94 103//94 104//94 
f 95//94 104//94 94//94 
f 94//94 104//94 105//94 
f 94//94 105//94 93//94 
