s 1
o LnR_BrassSleeve_6x4x2_1 
g 
usemtl Ty_Yellow
v 17.841 44.7423 20.8622
v 17.7899 46.5559 20.8622
v 17.8336 46.9718 20.8622
vn 0 0 -1
f 1//1 2//1 3//1 
v 17.3336 44.3737 20.8622
f 2//1 1//1 4//1 
v 17.6607 46.1583 20.8622
f 2//1 4//1 5//1 
v 17.4516 45.7962 20.8622
f 5//1 4//1 6//1 
v 17.1718 45.4855 20.8622
f 6//1 4//1 7//1 
v 16.7606 44.1186 20.8622
f 7//1 4//1 8//1 
v 16.8336 45.2397 20.8622
f 7//1 8//1 9//1 
v 16.4516 45.0697 20.8622
f 9//1 8//1 10//1 
v 16.1472 43.9882 20.8622
f 10//1 8//1 11//1 
v 16.0426 44.9827 20.8622
f 10//1 11//1 12//1 
v 15.52 43.9882 20.8622
f 12//1 11//1 13//1 
v 15.6245 44.9827 20.8622
f 12//1 13//1 14//1 
v 15.2155 45.0697 20.8622
f 14//1 13//1 15//1 
v 14.9065 44.1186 20.8622
f 15//1 13//1 16//1 
v 14.8336 45.2397 20.8622
f 15//1 16//1 17//1 
v 14.3336 44.3737 20.8622
f 17//1 16//1 18//1 
v 14.4953 45.4855 20.8622
f 17//1 18//1 19//1 
v 14.2155 45.7962 20.8622
f 19//1 18//1 20//1 
v 13.8262 44.7423 20.8622
f 20//1 18//1 21//1 
v 14.0065 46.1583 20.8622
f 20//1 21//1 22//1 
v 13.8773 46.5559 20.8622
f 22//1 21//1 23//1 
v 13.8336 46.9718 20.8622
f 23//1 21//1 24//1 
v 13.8262 49.2012 20.8622
f 24//1 21//1 25//1 
v 13.4065 48.7351 20.8622
f 25//1 21//1 26//1 
v 13.4065 45.2084 20.8622
f 26//1 21//1 27//1 
v 13.0929 48.192 20.8622
f 26//1 27//1 28//1 
v 13.0929 45.7516 20.8622
f 28//1 27//1 29//1 
v 12.8991 47.5955 20.8622
f 28//1 29//1 30//1 
v 12.8991 46.348 20.8622
f 30//1 29//1 31//1 
v 12.8336 46.9718 20.8622
f 30//1 31//1 32//1 
v 18.768 46.348 20.8622
v 18.768 47.5955 20.8622
v 18.8336 46.9718 20.8622
f 33//1 34//1 35//1 
v 18.5742 48.192 20.8622
f 34//1 33//1 36//1 
v 18.5742 45.7516 20.8622
f 36//1 33//1 37//1 
v 18.2606 48.7351 20.8622
f 36//1 37//1 38//1 
v 18.2606 45.2084 20.8622
f 38//1 37//1 39//1 
v 17.841 49.2012 20.8622
f 38//1 39//1 40//1 
f 40//1 39//1 1//1 
f 40//1 1//1 3//1 
v 17.7899 47.3876 20.8622
f 40//1 3//1 41//1 
v 17.3336 49.5698 20.8622
f 40//1 41//1 42//1 
v 17.6607 47.7852 20.8622
f 42//1 41//1 43//1 
v 17.4516 48.1473 20.8622
f 42//1 43//1 44//1 
v 17.1718 48.4581 20.8622
f 42//1 44//1 45//1 
v 16.7606 49.8249 20.8622
f 42//1 45//1 46//1 
v 16.8336 48.7038 20.8622
f 46//1 45//1 47//1 
v 16.4516 48.8739 20.8622
f 46//1 47//1 48//1 
v 16.1472 49.9553 20.8622
f 46//1 48//1 49//1 
v 16.0426 48.9608 20.8622
f 49//1 48//1 50//1 
v 15.52 49.9553 20.8622
f 49//1 50//1 51//1 
v 15.6245 48.9608 20.8622
f 51//1 50//1 52//1 
v 15.2155 48.8739 20.8622
f 51//1 52//1 53//1 
v 14.9065 49.8249 20.8622
f 51//1 53//1 54//1 
v 14.8336 48.7038 20.8622
f 54//1 53//1 55//1 
v 14.3336 49.5698 20.8622
f 54//1 55//1 56//1 
v 14.4953 48.4581 20.8622
f 56//1 55//1 57//1 
v 14.2155 48.1473 20.8622
f 56//1 57//1 58//1 
f 56//1 58//1 25//1 
v 14.0065 47.7852 20.8622
f 25//1 58//1 59//1 
v 13.8773 47.3876 20.8622
f 25//1 59//1 60//1 
f 25//1 60//1 24//1 
v 18.768 47.5955 22.8622
v 18.768 46.348 22.8622
v 18.8336 46.9718 22.8622
vn 0 0 1
f 61//2 62//2 63//2 
v 18.5742 48.192 22.8622
f 62//2 61//2 64//2 
v 18.5742 45.7516 22.8622
f 62//2 64//2 65//2 
v 18.2606 48.7351 22.8622
f 65//2 64//2 66//2 
v 18.2606 45.2084 22.8622
f 65//2 66//2 67//2 
v 17.841 49.2012 22.8622
f 67//2 66//2 68//2 
v 17.841 44.7423 22.8622
f 67//2 68//2 69//2 
v 17.8336 46.9718 22.8622
f 69//2 68//2 70//2 
v 17.7899 47.3876 22.8622
f 70//2 68//2 71//2 
v 17.3336 49.5698 22.8622
f 71//2 68//2 72//2 
v 17.6607 47.7852 22.8622
f 71//2 72//2 73//2 
v 17.4516 48.1473 22.8622
f 73//2 72//2 74//2 
v 17.1718 48.4581 22.8622
f 74//2 72//2 75//2 
v 16.7606 49.8249 22.8622
f 75//2 72//2 76//2 
v 16.8336 48.7038 22.8622
f 75//2 76//2 77//2 
v 16.4516 48.8739 22.8622
f 77//2 76//2 78//2 
v 16.1472 49.9553 22.8622
f 78//2 76//2 79//2 
v 16.0426 48.9608 22.8622
f 78//2 79//2 80//2 
v 15.52 49.9553 22.8622
f 80//2 79//2 81//2 
v 15.6245 48.9608 22.8622
f 80//2 81//2 82//2 
v 15.2155 48.8739 22.8622
f 82//2 81//2 83//2 
v 14.9065 49.8249 22.8622
f 83//2 81//2 84//2 
v 14.8336 48.7038 22.8622
f 83//2 84//2 85//2 
v 14.3336 49.5698 22.8622
f 85//2 84//2 86//2 
v 14.4953 48.4581 22.8622
f 85//2 86//2 87//2 
v 14.2155 48.1473 22.8622
f 87//2 86//2 88//2 
v 13.8262 49.2012 22.8622
f 88//2 86//2 89//2 
v 14.0065 47.7852 22.8622
f 88//2 89//2 90//2 
v 13.8773 47.3876 22.8622
f 90//2 89//2 91//2 
v 13.8336 46.9718 22.8622
f 91//2 89//2 92//2 
v 17.7899 46.5559 22.8622
v 17.3336 44.3737 22.8622
f 69//2 93//2 94//2 
f 93//2 69//2 70//2 
v 17.6607 46.1583 22.8622
f 94//2 93//2 95//2 
v 17.4516 45.7962 22.8622
f 94//2 95//2 96//2 
v 17.1718 45.4855 22.8622
f 94//2 96//2 97//2 
v 16.7606 44.1186 22.8622
f 94//2 97//2 98//2 
v 16.8336 45.2397 22.8622
f 98//2 97//2 99//2 
v 16.4516 45.0697 22.8622
f 98//2 99//2 100//2 
v 16.1472 43.9882 22.8622
f 98//2 100//2 101//2 
v 16.0426 44.9827 22.8622
f 101//2 100//2 102//2 
v 15.52 43.9882 22.8622
f 101//2 102//2 103//2 
v 15.6245 44.9827 22.8622
f 103//2 102//2 104//2 
v 15.2155 45.0697 22.8622
f 103//2 104//2 105//2 
v 14.9065 44.1186 22.8622
f 103//2 105//2 106//2 
v 14.8336 45.2397 22.8622
f 106//2 105//2 107//2 
v 14.3336 44.3737 22.8622
f 106//2 107//2 108//2 
v 14.4953 45.4855 22.8622
f 108//2 107//2 109//2 
v 14.2155 45.7962 22.8622
f 108//2 109//2 110//2 
v 13.8262 44.7423 22.8622
f 108//2 110//2 111//2 
v 14.0065 46.1583 22.8622
f 111//2 110//2 112//2 
v 13.8773 46.5559 22.8622
f 111//2 112//2 113//2 
f 111//2 113//2 92//2 
f 111//2 92//2 89//2 
v 13.4065 48.7351 22.8622
f 111//2 89//2 114//2 
v 13.4065 45.2084 22.8622
f 111//2 114//2 115//2 
v 13.0929 48.192 22.8622
f 115//2 114//2 116//2 
v 13.0929 45.7516 22.8622
f 115//2 116//2 117//2 
v 12.8991 47.5955 22.8622
f 117//2 116//2 118//2 
v 12.8991 46.348 22.8622
f 117//2 118//2 119//2 
v 12.8336 46.9718 22.8622
f 119//2 118//2 120//2 
vn 0.913545 -0.406737 0
vn 0.978148 -0.207912 0
f 65//3 33//4 62//4 
f 33//4 65//3 37//3 
vn 1 0 0
f 62//4 35//5 63//5 
f 35//5 62//4 33//4 
vn 0.978148 0.207912 0
f 63//5 34//6 61//6 
f 34//6 63//5 35//5 
vn 0.913545 0.406737 0
f 61//6 36//7 64//7 
f 36//7 61//6 34//6 
vn 0.809017 0.587785 0
f 64//7 38//8 66//8 
f 38//8 64//7 36//7 
vn 0.669131 0.743145 0
f 66//8 40//9 68//9 
f 40//9 66//8 38//8 
vn 0.5 0.866025 0
f 72//10 40//9 42//10 
f 40//9 72//10 68//9 
vn 0.309017 0.951057 0
f 76//11 42//10 46//11 
f 42//10 76//11 72//10 
vn 0.104528 0.994522 0
f 79//12 46//11 49//12 
f 46//11 79//12 76//11 
vn -0.104528 0.994522 0
f 81//13 49//12 51//13 
f 49//12 81//13 79//12 
vn -0.309017 0.951057 0
f 84//14 51//13 54//14 
f 51//13 84//14 81//13 
vn -0.5 0.866025 0
f 86//15 54//14 56//15 
f 54//14 86//15 84//14 
vn -0.669131 0.743145 0
f 89//16 56//15 25//16 
f 56//15 89//16 86//15 
vn -0.809017 0.587785 0
f 26//17 89//16 25//16 
f 89//16 26//17 114//17 
vn -0.913545 0.406737 0
f 28//18 114//17 26//17 
f 114//17 28//18 116//18 
vn -0.978148 0.207912 0
f 30//19 116//18 28//18 
f 116//18 30//19 118//19 
vn -1 0 0
f 32//20 118//19 30//19 
f 118//19 32//20 120//20 
vn -0.978148 -0.207912 0
f 31//21 120//20 32//20 
f 120//20 31//21 119//21 
vn -0.913545 -0.406737 0
f 29//22 119//21 31//21 
f 119//21 29//22 117//22 
vn -0.809017 -0.587785 0
f 27//23 117//22 29//22 
f 117//22 27//23 115//23 
vn -0.669131 -0.743145 0
f 21//24 115//23 27//23 
f 115//23 21//24 111//24 
vn -0.5 -0.866025 0
f 108//25 21//24 18//25 
f 21//24 108//25 111//24 
vn -0.309017 -0.951057 0
f 106//26 18//25 16//26 
f 18//25 106//26 108//25 
vn -0.104528 -0.994522 0
f 103//27 16//26 13//27 
f 16//26 103//27 106//26 
vn 0.104528 -0.994522 0
f 101//28 13//27 11//28 
f 13//27 101//28 103//27 
vn 0.309017 -0.951057 0
f 98//29 11//28 8//29 
f 11//28 98//29 101//28 
vn 0.5 -0.866025 0
f 94//30 8//29 4//30 
f 8//29 94//30 98//29 
vn 0.669131 -0.743145 0
f 69//31 4//30 1//31 
f 4//30 69//31 94//30 
vn 0.809017 -0.587785 0
f 69//31 39//32 67//32 
f 39//32 69//31 1//31 
f 67//32 37//3 65//3 
f 37//3 67//32 39//32 
f 5//18 93//19 2//19 
f 93//19 5//18 95//18 
f 6//17 95//18 5//18 
f 95//18 6//17 96//17 
f 7//16 96//17 6//17 
f 96//17 7//16 97//16 
f 99//15 7//16 9//15 
f 7//16 99//15 97//16 
f 100//14 9//15 10//14 
f 9//15 100//14 99//15 
f 102//13 10//14 12//13 
f 10//14 102//13 100//14 
f 104//12 12//13 14//12 
f 12//13 104//12 102//13 
f 105//11 14//12 15//11 
f 14//12 105//11 104//12 
f 107//10 15//11 17//10 
f 15//11 107//10 105//11 
f 109//9 17//10 19//9 
f 17//10 109//9 107//10 
f 109//9 20//8 110//8 
f 20//8 109//9 19//9 
f 110//8 22//7 112//7 
f 22//7 110//8 20//8 
f 112//7 23//6 113//6 
f 23//6 112//7 22//7 
f 113//6 24//5 92//5 
f 24//5 113//6 23//6 
f 92//5 60//4 91//4 
f 60//4 92//5 24//5 
f 91//4 59//3 90//3 
f 59//3 91//4 60//4 
f 90//3 58//32 88//32 
f 58//32 90//3 59//3 
f 88//32 57//31 87//31 
f 57//31 88//32 58//32 
f 85//30 57//31 55//30 
f 57//31 85//30 87//31 
f 83//29 55//30 53//29 
f 55//30 83//29 85//30 
f 82//28 53//29 52//28 
f 53//29 82//28 83//29 
f 80//27 52//28 50//27 
f 52//28 80//27 82//28 
f 78//26 50//27 48//26 
f 50//27 78//26 80//27 
f 77//25 48//26 47//25 
f 48//26 77//25 78//26 
f 75//24 47//25 45//24 
f 47//25 75//24 77//25 
f 44//23 75//24 45//24 
f 75//24 44//23 74//23 
f 43//22 74//23 44//23 
f 74//23 43//22 73//22 
f 41//21 73//22 43//22 
f 73//22 41//21 71//21 
f 3//20 71//21 41//21 
f 71//21 3//20 70//20 
f 2//19 70//20 3//20 
f 70//20 2//19 93//19 
v 13.8773 47.3876 17.7622
v 13.8336 46.9718 20.7622
v 13.8336 46.9718 17.7622
vn 0.978148 -0.207912 0
vn 1 -5.31049e-13 0
f 121//33 122//34 123//34 
v 13.8773 47.3876 20.7622
f 122//34 121//33 124//33 
v 17.1718 48.4581 20.7622
v 17.4516 48.1473 17.7622
v 17.4516 48.1473 20.7622
f 125//24 126//23 127//23 
v 17.1718 48.4581 17.7622
f 126//23 125//24 128//24 
v 14.0065 47.7852 17.7622
vn 0.913545 -0.406737 0
f 129//35 124//33 121//33 
v 14.0065 47.7852 20.7622
f 124//33 129//35 130//35 
v 16.8336 48.7038 20.7622
v 16.4516 48.8739 17.7622
v 16.8336 48.7038 17.7622
f 131//25 132//26 133//25 
v 16.4516 48.8739 20.7622
f 132//26 131//25 134//26 
v 13.8773 46.5559 17.7622
v 14.0065 46.1583 20.7622
v 14.0065 46.1583 17.7622
vn 0.978148 0.207912 0
vn 0.913545 0.406737 0
f 135//36 136//37 137//37 
v 13.8773 46.5559 20.7622
f 136//37 135//36 138//36 
v 16.0426 48.9608 20.7622
v 15.6245 48.9608 17.7622
v 16.0426 48.9608 17.7622
vn -0.104528 -0.994522 0
vn 0.104528 -0.994522 0
f 139//38 140//39 141//38 
v 15.6245 48.9608 20.7622
f 140//39 139//38 142//39 
f 134//26 141//38 132//26 
f 141//38 134//26 139//38 
f 123//34 138//36 135//36 
f 138//36 123//34 122//34 
v 14.4953 48.4581 17.7622
v 14.2155 48.1473 20.7622
v 14.2155 48.1473 17.7622
f 143//31 144//32 145//32 
v 14.4953 48.4581 20.7622
f 144//32 143//31 146//31 
v 17.7899 47.3876 20.7622
v 17.8336 46.9718 17.7622
v 17.8336 46.9718 20.7622
vn -0.978148 -0.207912 0
vn -1 5.31005e-13 0
f 147//40 148//41 149//41 
v 17.7899 47.3876 17.7622
f 148//41 147//40 150//40 
v 17.7899 46.5559 17.7622
v 17.7899 46.5559 20.7622
vn -0.978148 0.207912 0
f 149//41 151//42 152//42 
f 151//42 149//41 148//41 
v 17.6607 47.7852 20.7622
vn -0.913545 -0.406737 0
f 153//43 150//40 147//40 
v 17.6607 47.7852 17.7622
f 150//40 153//43 154//43 
v 15.2155 48.8739 17.7622
f 142//39 155//29 140//39 
v 15.2155 48.8739 20.7622
f 155//29 142//39 156//29 
f 145//32 130//35 129//35 
f 130//35 145//32 144//32 
v 14.8336 48.7038 20.7622
v 14.8336 48.7038 17.7622
vn 0.5 -0.866025 0
f 157//44 143//31 158//44 
f 143//31 157//44 146//31 
f 125//24 133//25 128//24 
f 133//25 125//24 131//25 
f 127//23 154//43 153//43 
f 154//43 127//23 126//23 
f 156//29 158//44 155//29 
f 158//44 156//29 157//44 
v 18.5742 45.7516 17.7622
v 18.2606 45.2084 20.7622
v 18.2606 45.2084 17.7622
f 159//35 160//32 161//32 
v 18.5742 45.7516 20.7622
f 160//32 159//35 162//35 
v 17.6607 46.1583 17.7622
v 17.6607 46.1583 20.7622
vn -0.913545 0.406737 0
f 152//42 163//45 164//45 
f 163//45 152//42 151//42 
v 17.4516 45.7962 17.7622
v 17.4516 45.7962 20.7622
vn -0.809017 0.587785 0
f 164//45 165//46 166//46 
f 165//46 164//45 163//45 
v 17.1718 45.4855 17.7622
v 17.1718 45.4855 20.7622
f 166//46 167//16 168//16 
f 167//16 166//46 165//46 
v 16.4516 45.0697 20.7622
v 16.8336 45.2397 17.7622
v 16.4516 45.0697 17.7622
vn -0.309017 0.951057 0
vn -0.5 0.866025 0
f 169//47 170//48 171//47 
v 16.8336 45.2397 20.7622
f 170//48 169//47 172//48 
f 172//48 167//16 170//48 
f 167//16 172//48 168//16 
v 16.0426 44.9827 20.7622
v 16.0426 44.9827 17.7622
vn -0.104528 0.994522 0
f 173//49 171//47 174//49 
f 171//47 173//49 169//47 
v 15.6245 44.9827 20.7622
v 15.6245 44.9827 17.7622
vn 0.104528 0.994522 0
f 175//50 174//49 176//50 
f 174//49 175//50 173//49 
v 17.3336 44.3737 20.7622
v 16.7606 44.1186 17.7622
v 17.3336 44.3737 17.7622
f 177//44 178//29 179//44 
v 16.7606 44.1186 20.7622
f 178//29 177//44 180//29 
v 17.841 44.7423 20.7622
v 17.841 44.7423 17.7622
f 181//31 179//44 182//31 
f 179//44 181//31 177//44 
f 161//32 181//31 182//31 
f 181//31 161//32 160//32 
v 15.52 43.9882 20.7622
v 14.9065 44.1186 17.7622
v 15.52 43.9882 17.7622
f 183//38 184//26 185//38 
v 14.9065 44.1186 20.7622
f 184//26 183//38 186//26 
v 16.1472 43.9882 20.7622
v 16.1472 43.9882 17.7622
f 187//39 185//38 188//39 
f 185//38 187//39 183//38 
f 180//29 188//39 178//29 
f 188//39 180//29 187//39 
v 14.4953 45.4855 20.7622
v 14.8336 45.2397 17.7622
v 14.4953 45.4855 17.7622
f 189//9 190//10 191//9 
v 14.8336 45.2397 20.7622
f 190//10 189//9 192//10 
v 14.2155 45.7962 17.7622
vn 0.809017 0.587785 0
f 193//51 189//9 191//9 
v 14.2155 45.7962 20.7622
f 189//9 193//51 194//51 
v 15.2155 45.0697 17.7622
vn 0.309017 0.951057 0
f 192//10 195//52 190//10 
v 15.2155 45.0697 20.7622
f 195//52 192//10 196//52 
f 196//52 176//50 195//52 
f 176//50 196//52 175//50 
v 13.0929 48.192 20.7622
v 12.8991 47.5955 17.7622
v 12.8991 47.5955 20.7622
f 197//45 198//42 199//42 
v 13.0929 48.192 17.7622
f 198//42 197//45 200//45 
v 13.0929 45.7516 20.7622
v 13.4065 45.2084 17.7622
v 13.4065 45.2084 20.7622
f 201//43 202//23 203//23 
v 13.0929 45.7516 17.7622
f 202//23 201//43 204//43 
v 13.8262 44.7423 17.7622
v 13.8262 44.7423 20.7622
f 203//23 205//24 206//24 
f 205//24 203//23 202//23 
v 12.8336 46.9718 17.7622
v 12.8336 46.9718 20.7622
vn -1 5.31049e-13 0
f 199//42 207//53 208//53 
f 207//53 199//42 198//42 
v 14.3336 44.3737 20.7622
v 14.3336 44.3737 17.7622
f 209//25 205//24 210//25 
f 205//24 209//25 206//24 
v 12.8991 46.348 20.7622
f 211//40 204//43 201//43 
v 12.8991 46.348 17.7622
f 204//43 211//40 212//40 
f 186//26 210//25 184//26 
f 210//25 186//26 209//25 
f 208//53 212//40 211//40 
f 212//40 208//53 207//53 
f 137//37 194//51 193//51 
f 194//51 137//37 136//37 
v 17.841 49.2012 17.7622
v 18.2606 48.7351 20.7622
v 18.2606 48.7351 17.7622
f 213//9 214//51 215//51 
v 17.841 49.2012 20.7622
f 214//51 213//9 216//9 
v 15.52 49.9553 20.7622
v 16.1472 49.9553 17.7622
v 15.52 49.9553 17.7622
f 217//49 218//50 219//49 
v 16.1472 49.9553 20.7622
f 218//50 217//49 220//50 
v 18.5742 48.192 20.7622
v 18.5742 48.192 17.7622
f 215//51 221//37 222//37 
f 221//37 215//51 214//51 
v 18.768 47.5955 20.7622
v 18.768 47.5955 17.7622
f 222//37 223//36 224//36 
f 223//36 222//37 221//37 
v 14.9065 49.8249 20.7622
v 14.9065 49.8249 17.7622
f 225//47 219//49 226//47 
f 219//49 225//47 217//49 
v 14.3336 49.5698 20.7622
v 14.3336 49.5698 17.7622
f 227//48 226//47 228//48 
f 226//47 227//48 225//47 
v 13.8262 49.2012 20.7622
v 13.8262 49.2012 17.7622
f 229//16 228//48 230//16 
f 228//48 229//16 227//48 
v 16.7606 49.8249 20.7622
v 17.3336 49.5698 17.7622
v 16.7606 49.8249 17.7622
f 231//52 232//10 233//52 
v 17.3336 49.5698 20.7622
f 232//10 231//52 234//10 
v 18.8336 46.9718 17.7622
v 18.768 46.348 20.7622
v 18.768 46.348 17.7622
vn 1 -5.31076e-13 0
f 235//54 236//33 237//33 
v 18.8336 46.9718 20.7622
f 236//33 235//54 238//54 
f 234//10 213//9 232//10 
f 213//9 234//10 216//9 
f 220//50 233//52 218//50 
f 233//52 220//50 231//52 
f 237//33 162//35 159//35 
f 162//35 237//33 236//33 
f 224//36 238//54 235//54 
f 238//54 224//36 223//36 
v 13.4065 48.7351 17.7622
v 13.4065 48.7351 20.7622
f 229//16 239//46 240//46 
f 239//46 229//16 230//16 
f 240//46 200//45 197//45 
f 200//45 240//46 239//46 
f 230//1 121//1 123//1 
f 121//1 230//1 228//1 
f 121//1 228//1 129//1 
f 129//1 228//1 145//1 
f 145//1 228//1 143//1 
f 143//1 228//1 226//1 
f 143//1 226//1 158//1 
f 158//1 226//1 155//1 
f 155//1 226//1 219//1 
f 155//1 219//1 140//1 
f 140//1 219//1 218//1 
f 140//1 218//1 141//1 
f 141//1 218//1 132//1 
f 132//1 218//1 233//1 
f 132//1 233//1 133//1 
f 133//1 233//1 232//1 
f 133//1 232//1 128//1 
f 128//1 232//1 126//1 
f 126//1 232//1 213//1 
f 126//1 213//1 154//1 
f 154//1 213//1 150//1 
f 150//1 213//1 148//1 
f 148//1 213//1 182//1 
f 182//1 213//1 161//1 
f 161//1 213//1 215//1 
f 161//1 215//1 159//1 
f 159//1 215//1 222//1 
f 159//1 222//1 237//1 
f 237//1 222//1 224//1 
f 237//1 224//1 235//1 
f 198//1 212//1 207//1 
f 212//1 198//1 204//1 
f 204//1 198//1 200//1 
f 204//1 200//1 202//1 
f 202//1 200//1 239//1 
f 202//1 239//1 205//1 
f 205//1 239//1 230//1 
f 205//1 230//1 123//1 
f 205//1 123//1 135//1 
f 205//1 135//1 210//1 
f 210//1 135//1 137//1 
f 210//1 137//1 193//1 
f 210//1 193//1 191//1 
f 210//1 191//1 184//1 
f 184//1 191//1 190//1 
f 184//1 190//1 195//1 
f 184//1 195//1 185//1 
f 185//1 195//1 176//1 
f 185//1 176//1 188//1 
f 188//1 176//1 174//1 
f 188//1 174//1 171//1 
f 188//1 171//1 178//1 
f 178//1 171//1 170//1 
f 178//1 170//1 179//1 
f 179//1 170//1 167//1 
f 179//1 167//1 165//1 
f 179//1 165//1 182//1 
f 182//1 165//1 163//1 
f 182//1 163//1 151//1 
f 182//1 151//1 148//1 
f 211//2 199//2 208//2 
f 199//2 211//2 201//2 
f 199//2 201//2 197//2 
f 197//2 201//2 203//2 
f 197//2 203//2 240//2 
f 240//2 203//2 206//2 
f 240//2 206//2 229//2 
f 229//2 206//2 122//2 
f 122//2 206//2 138//2 
f 138//2 206//2 209//2 
f 138//2 209//2 136//2 
f 136//2 209//2 194//2 
f 194//2 209//2 189//2 
f 189//2 209//2 186//2 
f 189//2 186//2 192//2 
f 192//2 186//2 196//2 
f 196//2 186//2 183//2 
f 196//2 183//2 175//2 
f 175//2 183//2 187//2 
f 175//2 187//2 173//2 
f 173//2 187//2 169//2 
f 169//2 187//2 180//2 
f 169//2 180//2 172//2 
f 172//2 180//2 177//2 
f 172//2 177//2 168//2 
f 168//2 177//2 166//2 
f 166//2 177//2 181//2 
f 166//2 181//2 164//2 
f 164//2 181//2 152//2 
f 152//2 181//2 149//2 
f 229//2 124//2 227//2 
f 124//2 229//2 122//2 
f 227//2 124//2 130//2 
f 227//2 130//2 144//2 
f 227//2 144//2 146//2 
f 227//2 146//2 225//2 
f 225//2 146//2 157//2 
f 225//2 157//2 156//2 
f 225//2 156//2 217//2 
f 217//2 156//2 142//2 
f 217//2 142//2 220//2 
f 220//2 142//2 139//2 
f 220//2 139//2 134//2 
f 220//2 134//2 231//2 
f 231//2 134//2 131//2 
f 231//2 131//2 234//2 
f 234//2 131//2 125//2 
f 234//2 125//2 127//2 
f 234//2 127//2 216//2 
f 216//2 127//2 153//2 
f 216//2 153//2 147//2 
f 216//2 147//2 149//2 
f 216//2 149//2 181//2 
f 216//2 181//2 160//2 
f 216//2 160//2 214//2 
f 214//2 160//2 162//2 
f 214//2 162//2 221//2 
f 221//2 162//2 236//2 
f 221//2 236//2 223//2 
f 223//2 236//2 238//2 
