s 1
o LnR_ServoArmVerstaerkungsRing_1_1 
g 
usemtl Color_I04
v 17.4405 51.9173 14.1337
v 17.9221 47.1913 14.1337
v 18.0476 51.6769 14.1337
vn 0 0 1
f 1//1 2//1 3//1 
v 17.8308 47.6207 14.1337
f 2//1 1//1 4//1 
v 17.6522 48.0218 14.1337
f 4//1 1//1 5//1 
v 17.3942 48.3769 14.1337
f 5//1 1//1 6//1 
v 16.808 52.0797 14.1337
f 6//1 1//1 7//1 
v 17.0679 48.6707 14.1337
f 6//1 7//1 8//1 
v 16.6877 48.8902 14.1337
f 8//1 7//1 9//1 
v 16.1601 52.1615 14.1337
f 9//1 7//1 10//1 
v 16.2702 49.0259 14.1337
f 9//1 10//1 11//1 
v 15.8336 49.0718 14.1337
f 11//1 10//1 12//1 
v 15.5071 52.1615 14.1337
f 12//1 10//1 13//1 
v 15.397 49.0259 14.1337
f 12//1 13//1 14//1 
v 14.8592 52.0797 14.1337
f 14//1 13//1 15//1 
v 14.9794 48.8902 14.1337
f 14//1 15//1 16//1 
v 14.5992 48.6707 14.1337
f 16//1 15//1 17//1 
v 14.2267 51.9173 14.1337
f 17//1 15//1 18//1 
v 14.273 48.3769 14.1337
f 17//1 18//1 19//1 
v 14.0149 48.0218 14.1337
f 19//1 18//1 20//1 
v 13.6195 51.6769 14.1337
f 20//1 18//1 21//1 
v 13.8364 47.6207 14.1337
f 20//1 21//1 22//1 
v 13.7451 47.1913 14.1337
f 22//1 21//1 23//1 
v 13.7451 46.7523 14.1337
f 23//1 21//1 24//1 
v 20.9926 47.6235 14.1337
v 20.9926 46.32 14.1337
v 21.0336 46.9718 14.1337
f 25//1 26//1 27//1 
v 20.8702 48.265 14.1337
f 26//1 25//1 28//1 
v 20.8702 45.6786 14.1337
f 26//1 28//1 29//1 
v 20.6684 48.886 14.1337
f 29//1 28//1 30//1 
v 20.6684 45.0575 14.1337
f 29//1 30//1 31//1 
v 20.3904 44.4667 14.1337
f 31//1 30//1 32//1 
v 20.3904 49.4769 14.1337
f 32//1 30//1 33//1 
v 20.0405 50.0283 14.1337
f 32//1 33//1 34//1 
v 20.0405 43.9153 14.1337
f 32//1 34//1 35//1 
v 19.6242 43.4121 14.1337
f 35//1 34//1 36//1 
v 19.6242 50.5314 14.1337
f 36//1 34//1 37//1 
v 19.1482 50.9784 14.1337
f 36//1 37//1 38//1 
v 19.1482 42.9651 14.1337
f 36//1 38//1 39//1 
v 18.6199 42.5813 14.1337
f 39//1 38//1 40//1 
v 18.6199 51.3623 14.1337
f 40//1 38//1 41//1 
v 18.0476 42.2667 14.1337
f 40//1 41//1 42//1 
f 42//1 41//1 3//1 
v 17.9221 46.7523 14.1337
f 42//1 3//1 43//1 
v 17.4405 42.0263 14.1337
f 42//1 43//1 44//1 
f 43//1 3//1 2//1 
v 17.8308 46.3228 14.1337
f 44//1 43//1 45//1 
v 17.6522 45.9218 14.1337
f 44//1 45//1 46//1 
v 17.3942 45.5666 14.1337
f 44//1 46//1 47//1 
v 16.808 41.8639 14.1337
f 44//1 47//1 48//1 
v 17.0679 45.2728 14.1337
f 48//1 47//1 49//1 
v 16.6877 45.0533 14.1337
f 48//1 49//1 50//1 
v 16.1601 41.782 14.1337
f 48//1 50//1 51//1 
v 16.2702 44.9177 14.1337
f 51//1 50//1 52//1 
v 15.8336 44.8718 14.1337
f 51//1 52//1 53//1 
v 15.5071 41.782 14.1337
f 51//1 53//1 54//1 
v 15.397 44.9177 14.1337
f 54//1 53//1 55//1 
v 14.8592 41.8639 14.1337
f 54//1 55//1 56//1 
v 14.9794 45.0533 14.1337
f 56//1 55//1 57//1 
v 14.5992 45.2728 14.1337
f 56//1 57//1 58//1 
v 14.2267 42.0263 14.1337
f 56//1 58//1 59//1 
v 14.273 45.5666 14.1337
f 59//1 58//1 60//1 
v 14.0149 45.9218 14.1337
f 59//1 60//1 61//1 
v 13.6195 42.2667 14.1337
f 59//1 61//1 62//1 
v 13.8364 46.3228 14.1337
f 62//1 61//1 63//1 
f 62//1 63//1 24//1 
f 62//1 24//1 21//1 
v 13.0473 51.3623 14.1337
f 62//1 21//1 64//1 
v 13.0473 42.5813 14.1337
f 62//1 64//1 65//1 
v 12.519 42.9651 14.1337
f 65//1 64//1 66//1 
v 12.519 50.9784 14.1337
f 66//1 64//1 67//1 
v 12.0429 43.4121 14.1337
f 66//1 67//1 68//1 
v 12.0429 50.5314 14.1337
f 68//1 67//1 69//1 
v 11.6267 43.9153 14.1337
f 68//1 69//1 70//1 
v 11.6267 50.0283 14.1337
f 70//1 69//1 71//1 
v 11.2768 44.4667 14.1337
f 70//1 71//1 72//1 
v 11.2768 49.4769 14.1337
f 72//1 71//1 73//1 
v 10.9987 48.886 14.1337
f 72//1 73//1 74//1 
v 10.9987 45.0575 14.1337
f 72//1 74//1 75//1 
v 10.797 48.265 14.1337
f 75//1 74//1 76//1 
v 10.797 45.6786 14.1337
f 75//1 76//1 77//1 
v 10.6746 46.32 14.1337
f 77//1 76//1 78//1 
v 10.6746 47.6235 14.1337
f 78//1 76//1 79//1 
v 10.6336 46.9718 14.1337
f 78//1 79//1 80//1 
v 20.9926 46.32 11.1337
v 20.9926 47.6235 11.1337
v 21.0336 46.9718 11.1337
vn 0 0 -1
f 81//2 82//2 83//2 
v 20.8702 45.6786 11.1337
f 82//2 81//2 84//2 
v 20.8702 48.265 11.1337
f 82//2 84//2 85//2 
v 20.6684 45.0575 11.1337
f 85//2 84//2 86//2 
v 20.6684 48.886 11.1337
f 85//2 86//2 87//2 
v 20.3904 44.4667 11.1337
f 87//2 86//2 88//2 
v 20.3904 49.4769 11.1337
f 87//2 88//2 89//2 
v 20.0405 43.9153 11.1337
f 89//2 88//2 90//2 
v 20.0405 50.0283 11.1337
f 89//2 90//2 91//2 
v 19.6242 43.4121 11.1337
f 91//2 90//2 92//2 
v 19.6242 50.5314 11.1337
f 91//2 92//2 93//2 
v 19.1482 42.9651 11.1337
f 93//2 92//2 94//2 
v 19.1482 50.9784 11.1337
f 93//2 94//2 95//2 
v 18.6199 42.5813 11.1337
f 95//2 94//2 96//2 
v 18.6199 51.3623 11.1337
f 95//2 96//2 97//2 
v 18.0476 42.2667 11.1337
f 97//2 96//2 98//2 
v 18.0476 51.6769 11.1337
f 97//2 98//2 99//2 
v 17.9221 46.7523 11.1337
f 99//2 98//2 100//2 
v 17.4405 42.0263 11.1337
f 100//2 98//2 101//2 
v 17.9221 47.1913 11.1337
f 99//2 100//2 102//2 
v 17.8308 46.3228 11.1337
f 100//2 101//2 103//2 
v 17.6522 45.9218 11.1337
f 103//2 101//2 104//2 
v 17.3942 45.5666 11.1337
f 104//2 101//2 105//2 
v 16.808 41.8639 11.1337
f 105//2 101//2 106//2 
v 17.0679 45.2728 11.1337
f 105//2 106//2 107//2 
v 16.6877 45.0533 11.1337
f 107//2 106//2 108//2 
v 16.1601 41.782 11.1337
f 108//2 106//2 109//2 
v 16.2702 44.9177 11.1337
f 108//2 109//2 110//2 
v 15.8336 44.8718 11.1337
f 110//2 109//2 111//2 
v 15.5071 41.782 11.1337
f 111//2 109//2 112//2 
v 15.397 44.9177 11.1337
f 111//2 112//2 113//2 
v 14.8592 41.8639 11.1337
f 113//2 112//2 114//2 
v 14.9794 45.0533 11.1337
f 113//2 114//2 115//2 
v 14.5992 45.2728 11.1337
f 115//2 114//2 116//2 
v 14.2267 42.0263 11.1337
f 116//2 114//2 117//2 
v 14.273 45.5666 11.1337
f 116//2 117//2 118//2 
v 14.0149 45.9218 11.1337
f 118//2 117//2 119//2 
v 13.6195 42.2667 11.1337
f 119//2 117//2 120//2 
v 13.8364 46.3228 11.1337
f 119//2 120//2 121//2 
v 13.7451 46.7523 11.1337
f 121//2 120//2 122//2 
v 13.6195 51.6769 11.1337
f 122//2 120//2 123//2 
v 13.0473 51.3623 11.1337
f 123//2 120//2 124//2 
v 13.0473 42.5813 11.1337
f 124//2 120//2 125//2 
v 12.519 42.9651 11.1337
f 124//2 125//2 126//2 
v 12.519 50.9784 11.1337
f 124//2 126//2 127//2 
v 12.0429 43.4121 11.1337
f 127//2 126//2 128//2 
v 12.0429 50.5314 11.1337
f 127//2 128//2 129//2 
v 11.6267 43.9153 11.1337
f 129//2 128//2 130//2 
v 11.6267 50.0283 11.1337
f 129//2 130//2 131//2 
v 11.2768 44.4667 11.1337
f 131//2 130//2 132//2 
v 11.2768 49.4769 11.1337
f 131//2 132//2 133//2 
v 10.9987 45.0575 11.1337
f 133//2 132//2 134//2 
v 10.9987 48.886 11.1337
f 133//2 134//2 135//2 
v 10.797 45.6786 11.1337
f 135//2 134//2 136//2 
v 10.797 48.265 11.1337
f 135//2 136//2 137//2 
v 10.6746 46.32 11.1337
f 137//2 136//2 138//2 
v 10.6746 47.6235 11.1337
f 137//2 138//2 139//2 
v 10.6336 46.9718 11.1337
f 139//2 138//2 140//2 
v 17.4405 51.9173 11.1337
f 102//2 141//2 99//2 
v 17.8308 47.6207 11.1337
f 141//2 102//2 142//2 
v 17.6522 48.0218 11.1337
f 141//2 142//2 143//2 
v 17.3942 48.3769 11.1337
f 141//2 143//2 144//2 
v 16.808 52.0797 11.1337
f 141//2 144//2 145//2 
v 17.0679 48.6707 11.1337
f 145//2 144//2 146//2 
v 16.6877 48.8902 11.1337
f 145//2 146//2 147//2 
v 16.1601 52.1615 11.1337
f 145//2 147//2 148//2 
v 16.2702 49.0259 11.1337
f 148//2 147//2 149//2 
v 15.8336 49.0718 11.1337
f 148//2 149//2 150//2 
v 15.5071 52.1615 11.1337
f 148//2 150//2 151//2 
v 15.397 49.0259 11.1337
f 151//2 150//2 152//2 
v 14.8592 52.0797 11.1337
f 151//2 152//2 153//2 
v 14.9794 48.8902 11.1337
f 153//2 152//2 154//2 
v 14.5992 48.6707 11.1337
f 153//2 154//2 155//2 
v 14.2267 51.9173 11.1337
f 153//2 155//2 156//2 
v 14.273 48.3769 11.1337
f 156//2 155//2 157//2 
v 14.0149 48.0218 11.1337
f 156//2 157//2 158//2 
f 156//2 158//2 123//2 
v 13.8364 47.6207 11.1337
f 123//2 158//2 159//2 
v 13.7451 47.1913 11.1337
f 123//2 159//2 160//2 
f 123//2 160//2 122//2 
vn 0.535827 -0.844328 0
vn 0.425779 -0.904827 0
f 40//3 98//4 96//3 
f 98//4 40//3 42//4 
vn 0.637424 -0.770513 0
f 39//5 96//3 94//5 
f 96//3 39//5 40//3 
vn 0.728969 -0.684547 0
f 36//6 94//5 92//6 
f 94//5 36//6 39//5 
vn 0.809017 -0.587785 0
f 36//6 90//7 35//7 
f 90//7 36//6 92//6 
vn 0.876307 -0.481754 0
f 35//7 88//8 32//8 
f 88//8 35//7 90//7 
vn 0.929776 -0.368125 0
f 32//8 86//9 31//9 
f 86//9 32//8 88//8 
vn 0.968583 -0.24869 0
f 31//9 84//10 29//10 
f 84//10 31//9 86//9 
vn 0.992115 -0.125333 0
f 29//10 81//11 26//11 
f 81//11 29//10 84//10 
vn 1 0 0
f 26//11 83//12 27//12 
f 83//12 26//11 81//11 
vn 0.992115 0.125333 0
f 27//12 82//13 25//13 
f 82//13 27//12 83//12 
vn 0.968583 0.24869 0
f 25//13 85//14 28//14 
f 85//14 25//13 82//13 
vn 0.929776 0.368125 0
f 28//14 87//15 30//15 
f 87//15 28//14 85//14 
vn 0.876307 0.481754 0
f 30//15 89//16 33//16 
f 89//16 30//15 87//15 
vn 0.809017 0.587785 0
f 33//16 91//17 34//17 
f 91//17 33//16 89//16 
vn 0.728969 0.684547 0
f 34//17 93//18 37//18 
f 93//18 34//17 91//17 
vn 0.637424 0.770513 0
f 38//19 93//18 95//19 
f 93//18 38//19 37//18 
vn 0.535827 0.844328 0
f 41//20 95//19 97//20 
f 95//19 41//20 38//19 
vn 0.425779 0.904827 0
f 3//21 97//20 99//21 
f 97//20 3//21 41//20 
vn 0.309017 0.951057 0
f 1//22 99//21 141//22 
f 99//21 1//22 3//21 
vn 0.187381 0.982287 0
f 7//23 141//22 145//23 
f 141//22 7//23 1//22 
vn 0.0627905 0.998027 0
f 10//24 145//23 148//24 
f 145//23 10//24 7//23 
vn -0.0627905 0.998027 0
f 13//25 148//24 151//25 
f 148//24 13//25 10//24 
vn -0.187381 0.982287 0
f 15//26 151//25 153//26 
f 151//25 15//26 13//25 
vn -0.309017 0.951057 0
f 18//27 153//26 156//27 
f 153//26 18//27 15//26 
vn -0.425779 0.904827 0
f 21//28 156//27 123//28 
f 156//27 21//28 18//27 
vn -0.535827 0.844328 0
f 64//29 123//28 124//29 
f 123//28 64//29 21//28 
vn -0.637424 0.770513 0
f 67//30 124//29 127//30 
f 124//29 67//30 64//29 
vn -0.728969 0.684547 0
f 69//31 127//30 129//31 
f 127//30 69//31 67//30 
vn -0.809017 0.587785 0
f 131//32 69//31 129//31 
f 69//31 131//32 71//32 
vn -0.876307 0.481754 0
f 133//33 71//32 131//32 
f 71//32 133//33 73//33 
vn -0.929776 0.368125 0
f 135//34 73//33 133//33 
f 73//33 135//34 74//34 
vn -0.968583 0.24869 0
f 137//35 74//34 135//34 
f 74//34 137//35 76//35 
vn -0.992115 0.125333 0
f 139//36 76//35 137//35 
f 76//35 139//36 79//36 
vn -1 0 0
f 140//37 79//36 139//36 
f 79//36 140//37 80//37 
vn -0.992115 -0.125333 0
f 140//37 78//38 80//37 
f 78//38 140//37 138//38 
vn -0.968583 -0.24869 0
f 136//39 78//38 138//38 
f 78//38 136//39 77//39 
vn -0.929776 -0.368125 0
f 134//40 77//39 136//39 
f 77//39 134//40 75//40 
vn -0.876307 -0.481754 0
f 132//41 75//40 134//40 
f 75//40 132//41 72//41 
vn -0.809017 -0.587785 0
f 130//42 72//41 132//41 
f 72//41 130//42 70//42 
vn -0.728969 -0.684547 0
f 128//43 70//42 130//42 
f 70//42 128//43 68//43 
vn -0.637424 -0.770513 0
f 66//44 128//43 126//44 
f 128//43 66//44 68//43 
vn -0.535827 -0.844328 0
f 65//45 126//44 125//45 
f 126//44 65//45 66//44 
vn -0.425779 -0.904827 0
f 62//46 125//45 120//46 
f 125//45 62//46 65//45 
vn -0.309017 -0.951057 0
f 59//47 120//46 117//47 
f 120//46 59//47 62//46 
vn -0.187381 -0.982287 0
f 56//48 117//47 114//48 
f 117//47 56//48 59//47 
vn -0.0627905 -0.998027 0
f 54//49 114//48 112//49 
f 114//48 54//49 56//48 
vn 0.0627905 -0.998027 0
f 51//50 112//49 109//50 
f 112//49 51//50 54//49 
vn 0.187381 -0.982287 0
f 48//51 109//50 106//51 
f 109//50 48//51 51//50 
vn 0.309017 -0.951057 0
f 44//52 106//51 101//52 
f 106//51 44//52 48//51 
f 42//4 101//52 98//4 
f 101//52 42//4 44//52 
vn 0.866025 -0.5 0
vn 0.743145 -0.669131 0
f 20//53 157//54 19//54 
f 157//54 20//53 158//53 
vn 0.587785 -0.809017 0
f 17//55 157//54 155//55 
f 157//54 17//55 19//54 
vn 0.406737 -0.913545 0
f 154//56 17//55 155//55 
f 17//55 154//56 16//56 
vn 0.207912 -0.978148 0
f 152//57 16//56 154//56 
f 16//56 152//57 14//57 
vn 0 -1 0
f 150//58 14//57 152//57 
f 14//57 150//58 12//58 
vn -0.207912 -0.978148 0
f 149//59 12//58 150//58 
f 12//58 149//59 11//59 
vn -0.406737 -0.913545 0
f 147//60 11//59 149//59 
f 11//59 147//60 9//60 
vn -0.587785 -0.809017 0
f 146//61 9//60 147//60 
f 9//60 146//61 8//61 
vn -0.743145 -0.669131 0
f 144//62 8//61 146//61 
f 8//61 144//62 6//62 
vn -0.866025 -0.5 0
f 143//63 6//62 144//62 
f 6//62 143//63 5//63 
vn -0.951056 -0.309017 0
f 142//64 5//63 143//63 
f 5//63 142//64 4//64 
vn -0.994522 -0.104528 0
f 102//65 4//64 142//64 
f 4//64 102//65 2//65 
vn -0.994522 0.104528 0
f 100//66 2//65 102//65 
f 2//65 100//66 43//66 
vn -0.951056 0.309017 0
f 103//67 43//66 100//66 
f 43//66 103//67 45//67 
vn -0.866025 0.5 0
f 104//68 45//67 103//67 
f 45//67 104//68 46//68 
vn -0.743145 0.669131 0
f 105//69 46//68 104//68 
f 46//68 105//69 47//69 
vn -0.587785 0.809017 0
f 107//70 47//69 105//69 
f 47//69 107//70 49//70 
vn -0.406737 0.913545 0
f 50//71 107//70 108//71 
f 107//70 50//71 49//70 
vn -0.207912 0.978148 0
f 52//72 108//71 110//72 
f 108//71 52//72 50//71 
vn 0 1 0
f 53//73 110//72 111//73 
f 110//72 53//73 52//72 
vn 0.207912 0.978148 0
f 55//74 111//73 113//74 
f 111//73 55//74 53//73 
vn 0.406737 0.913545 0
f 57//75 113//74 115//75 
f 113//74 57//75 55//74 
vn 0.587785 0.809017 0
f 58//76 115//75 116//76 
f 115//75 58//76 57//75 
vn 0.743145 0.669131 0
f 60//77 116//76 118//77 
f 116//76 60//77 58//76 
vn 0.866025 0.5 0
f 60//77 119//78 61//78 
f 119//78 60//77 118//77 
vn 0.951056 0.309017 0
f 61//78 121//79 63//79 
f 121//79 61//78 119//78 
vn 0.994522 0.104528 0
f 63//79 122//80 24//80 
f 122//80 63//79 121//79 
vn 0.994522 -0.104528 0
f 24//80 160//81 23//81 
f 160//81 24//80 122//80 
vn 0.951056 -0.309017 0
f 23//81 159//82 22//82 
f 159//82 23//81 160//81 
f 22//82 158//53 20//53 
f 158//53 22//82 159//82 
