s 1
o 
g 
usemtl Layer_Layer0
v -24.1621 100 -13.95
v 23.7025 100 -14.7
v -23.7025 100 -14.7
vn 7.71019e-31 1 1.58895e-32
f 1//1 2//1 3//1 
v 24.1621 100 -13.95
f 2//1 1//1 4//1 
v 24.8591 100 -12.6663
f 4//1 1//1 5//1 
v -24.8591 100 -12.6663
f 5//1 1//1 6//1 
v 25.4879 100 -11.348
f 5//1 6//1 7//1 
v -25.4879 100 -11.348
f 7//1 6//1 8//1 
v 26.0469 100 -9.99847
f 7//1 8//1 9//1 
v -26.0469 100 -9.99847
f 9//1 8//1 10//1 
v 26.5345 100 -8.62157
f 9//1 10//1 11//1 
v -26.5345 100 -8.62157
f 11//1 10//1 12//1 
v 26.9493 100 -7.22105
f 11//1 12//1 13//1 
v -26.9493 100 -7.22105
f 13//1 12//1 14//1 
v 27.2903 100 -5.80074
f 13//1 14//1 15//1 
v -27.2903 100 -5.80074
f 15//1 14//1 16//1 
v 27.5565 100 -4.36452
f 15//1 16//1 17//1 
v -27.5565 100 -4.36452
f 17//1 16//1 18//1 
v 27.7472 100 -2.91634
f 17//1 18//1 19//1 
v -27.7472 100 -2.91634
f 19//1 18//1 20//1 
v 27.8618 100 -1.46017
f 19//1 20//1 21//1 
v -27.8618 100 -1.46017
f 21//1 20//1 22//1 
v 27.9 100 -5.12515e-15
f 21//1 22//1 23//1 
v -27.9 100 1.70838e-15
f 23//1 22//1 24//1 
v 27.8618 100 1.46017
f 23//1 24//1 25//1 
v -27.8618 100 1.46017
f 25//1 24//1 26//1 
v 27.7472 100 2.91634
f 25//1 26//1 27//1 
v -27.7472 100 2.91634
f 27//1 26//1 28//1 
v 27.5565 100 4.36452
f 27//1 28//1 29//1 
v -27.5565 100 4.36452
f 29//1 28//1 30//1 
v 27.2903 100 5.80074
f 29//1 30//1 31//1 
v -27.2903 100 5.80074
f 31//1 30//1 32//1 
v 26.9493 100 7.22105
f 31//1 32//1 33//1 
v -26.9493 100 7.22105
f 33//1 32//1 34//1 
v 26.5345 100 8.62157
f 33//1 34//1 35//1 
v -26.5345 100 8.62157
f 35//1 34//1 36//1 
v 26.0469 100 9.99847
f 35//1 36//1 37//1 
v -26.0469 100 9.99847
f 37//1 36//1 38//1 
v 25.4879 100 11.348
f 37//1 38//1 39//1 
v -25.4879 100 11.348
f 39//1 38//1 40//1 
v 24.8591 100 12.6663
f 39//1 40//1 41//1 
v -24.8591 100 12.6663
f 41//1 40//1 42//1 
v 24.1621 100 13.95
f 41//1 42//1 43//1 
v -24.1621 100 13.95
f 43//1 42//1 44//1 
v 23.3989 100 15.1954
f 43//1 44//1 45//1 
v -23.3989 100 15.1954
f 45//1 44//1 46//1 
v 22.5716 100 16.3992
f 45//1 46//1 47//1 
v -22.5716 100 16.3992
f 47//1 46//1 48//1 
v 21.6824 100 17.558
f 47//1 48//1 49//1 
v -21.6824 100 17.558
f 49//1 48//1 50//1 
v 20.7337 100 18.6687
f 49//1 50//1 51//1 
v -20.7337 100 18.6687
f 51//1 50//1 52//1 
v 19.7283 100 19.7283
f 51//1 52//1 53//1 
v -19.7283 100 19.7283
f 53//1 52//1 54//1 
v 18.6687 100 20.7337
f 53//1 54//1 55//1 
v -18.6687 100 20.7337
f 55//1 54//1 56//1 
v 17.558 100 21.6824
f 55//1 56//1 57//1 
v -17.558 100 21.6824
f 57//1 56//1 58//1 
v 16.3992 100 22.5716
f 57//1 58//1 59//1 
v -16.3992 100 22.5716
f 59//1 58//1 60//1 
v 15.1954 100 23.3989
f 59//1 60//1 61//1 
v -15.1954 100 23.3989
f 61//1 60//1 62//1 
v 13.95 100 24.1621
f 61//1 62//1 63//1 
v -13.95 100 24.1621
f 63//1 62//1 64//1 
v 12.6663 100 24.8591
f 63//1 64//1 65//1 
v -12.6663 100 24.8591
f 65//1 64//1 66//1 
v 11.348 100 25.4879
f 65//1 66//1 67//1 
v -11.348 100 25.4879
f 67//1 66//1 68//1 
v 9.99847 100 26.0469
f 67//1 68//1 69//1 
v -9.99847 100 26.0469
f 69//1 68//1 70//1 
v 8.62157 100 26.5345
f 69//1 70//1 71//1 
v -8.62157 100 26.5345
f 71//1 70//1 72//1 
v -7.22105 100 26.9493
f 71//1 72//1 73//1 
v 7.22105 100 26.9493
f 71//1 73//1 74//1 
v 5.80074 100 27.2903
f 74//1 73//1 75//1 
v -5.80074 100 27.2903
f 75//1 73//1 76//1 
v 4.36452 100 27.5565
f 75//1 76//1 77//1 
v -4.36452 100 27.5565
f 77//1 76//1 78//1 
v 2.91634 100 27.7472
f 77//1 78//1 79//1 
v -2.91634 100 27.7472
f 79//1 78//1 80//1 
v -1.46017 100 27.8618
f 79//1 80//1 81//1 
v 1.46017 100 27.8618
f 79//1 81//1 82//1 
v 0 100 27.9
f 82//1 81//1 83//1 
v 24.1621 80 -13.95
v -23.7025 80 -14.7
v 23.7025 80 -14.7
vn -7.71019e-31 -1 -1.58895e-32
f 84//2 85//2 86//2 
v -24.1621 80 -13.95
f 85//2 84//2 87//2 
v 24.8591 80 -12.6663
f 87//2 84//2 88//2 
v -24.8591 80 -12.6663
f 87//2 88//2 89//2 
v 25.4879 80 -11.348
f 89//2 88//2 90//2 
v -25.4879 80 -11.348
f 89//2 90//2 91//2 
v 26.0469 80 -9.99847
f 91//2 90//2 92//2 
v -26.0469 80 -9.99847
f 91//2 92//2 93//2 
v 26.5345 80 -8.62157
f 93//2 92//2 94//2 
v -26.5345 80 -8.62157
f 93//2 94//2 95//2 
v 26.9493 80 -7.22105
f 95//2 94//2 96//2 
v -26.9493 80 -7.22105
f 95//2 96//2 97//2 
v 27.2903 80 -5.80074
f 97//2 96//2 98//2 
v -27.2903 80 -5.80074
f 97//2 98//2 99//2 
v 27.5565 80 -4.36452
f 99//2 98//2 100//2 
v -27.5565 80 -4.36452
f 99//2 100//2 101//2 
v 27.7472 80 -2.91634
f 101//2 100//2 102//2 
v -27.7472 80 -2.91634
f 101//2 102//2 103//2 
v 27.8618 80 -1.46017
f 103//2 102//2 104//2 
v -27.8618 80 -1.46017
f 103//2 104//2 105//2 
v 27.9 80 -5.12515e-15
f 105//2 104//2 106//2 
v -27.9 80 1.70838e-15
f 105//2 106//2 107//2 
v 27.8618 80 1.46017
f 107//2 106//2 108//2 
v -27.8618 80 1.46017
f 107//2 108//2 109//2 
v 27.7472 80 2.91634
f 109//2 108//2 110//2 
v -27.7472 80 2.91634
f 109//2 110//2 111//2 
v 27.5565 80 4.36452
f 111//2 110//2 112//2 
v -27.5565 80 4.36452
f 111//2 112//2 113//2 
v 27.2903 80 5.80074
f 113//2 112//2 114//2 
v -27.2903 80 5.80074
f 113//2 114//2 115//2 
v 26.9493 80 7.22105
f 115//2 114//2 116//2 
v -26.9493 80 7.22105
f 115//2 116//2 117//2 
v 26.5345 80 8.62157
f 117//2 116//2 118//2 
v -26.5345 80 8.62157
f 117//2 118//2 119//2 
v 26.0469 80 9.99847
f 119//2 118//2 120//2 
v -26.0469 80 9.99847
f 119//2 120//2 121//2 
v 25.4879 80 11.348
f 121//2 120//2 122//2 
v -25.4879 80 11.348
f 121//2 122//2 123//2 
v 24.8591 80 12.6663
f 123//2 122//2 124//2 
v -24.8591 80 12.6663
f 123//2 124//2 125//2 
v 24.1621 80 13.95
f 125//2 124//2 126//2 
v -24.1621 80 13.95
f 125//2 126//2 127//2 
v 23.3989 80 15.1954
f 127//2 126//2 128//2 
v -23.3989 80 15.1954
f 127//2 128//2 129//2 
v 22.5716 80 16.3992
f 129//2 128//2 130//2 
v -22.5716 80 16.3992
f 129//2 130//2 131//2 
v 21.6824 80 17.558
f 131//2 130//2 132//2 
v -21.6824 80 17.558
f 131//2 132//2 133//2 
v 20.7337 80 18.6687
f 133//2 132//2 134//2 
v -20.7337 80 18.6687
f 133//2 134//2 135//2 
v 19.7283 80 19.7283
f 135//2 134//2 136//2 
v -19.7283 80 19.7283
f 135//2 136//2 137//2 
v 18.6687 80 20.7337
f 137//2 136//2 138//2 
v -18.6687 80 20.7337
f 137//2 138//2 139//2 
v 17.558 80 21.6824
f 139//2 138//2 140//2 
v -17.558 80 21.6824
f 139//2 140//2 141//2 
v 16.3992 80 22.5716
f 141//2 140//2 142//2 
v -16.3992 80 22.5716
f 141//2 142//2 143//2 
v 15.1954 80 23.3989
f 143//2 142//2 144//2 
v -15.1954 80 23.3989
f 143//2 144//2 145//2 
v 13.95 80 24.1621
f 145//2 144//2 146//2 
v -13.95 80 24.1621
f 145//2 146//2 147//2 
v 12.6663 80 24.8591
f 147//2 146//2 148//2 
v -12.6663 80 24.8591
f 147//2 148//2 149//2 
v 11.348 80 25.4879
f 149//2 148//2 150//2 
v -11.348 80 25.4879
f 149//2 150//2 151//2 
v 9.99847 80 26.0469
f 151//2 150//2 152//2 
v -9.99847 80 26.0469
f 151//2 152//2 153//2 
v 8.62157 80 26.5345
f 153//2 152//2 154//2 
v -8.62157 80 26.5345
f 153//2 154//2 155//2 
v 7.22105 80 26.9493
f 155//2 154//2 156//2 
v -7.22105 80 26.9493
f 155//2 156//2 157//2 
v 5.80074 80 27.2903
f 157//2 156//2 158//2 
v -5.80074 80 27.2903
f 157//2 158//2 159//2 
v 4.36452 80 27.5565
f 159//2 158//2 160//2 
v -4.36452 80 27.5565
f 159//2 160//2 161//2 
v 2.91634 80 27.7472
f 161//2 160//2 162//2 
v -2.91634 80 27.7472
f 161//2 162//2 163//2 
v 1.46017 80 27.8618
f 163//2 162//2 164//2 
v -1.46017 80 27.8618
f 163//2 164//2 165//2 
v -1.54204e-29 80 27.9
f 165//2 164//2 166//2 
vn -0.866025 6.75666e-31 -0.5
vn -0.85264 6.65704e-31 -0.522499
f 1//3 85//4 87//3 
f 85//4 1//3 3//4 
vn 0 1.58895e-32 -1
f 2//5 85//5 3//5 
f 85//5 2//5 86//5 
vn 0.85264 -6.49099e-31 -0.522499
vn 0.866025 -6.59777e-31 -0.5
f 2//6 84//7 86//6 
f 84//7 2//6 4//7 
vn 0.891007 -6.79769e-31 -0.45399
f 4//7 88//8 84//7 
f 88//8 4//7 5//8 
vn 0.913545 -6.97898e-31 -0.406737
f 5//8 90//9 88//8 
f 90//9 5//8 7//9 
vn 0.93358 -7.14114e-31 -0.358368
f 7//9 92//10 90//9 
f 92//10 7//9 9//10 
vn 0.951057 -7.28372e-31 -0.309017
f 9//10 94//11 92//10 
f 94//11 9//10 11//11 
vn 0.965926 -7.40634e-31 -0.258819
f 11//11 96//12 94//11 
f 96//12 11//11 13//12 
vn 0.978148 -7.50866e-31 -0.207912
f 13//12 98//13 96//12 
f 98//13 13//12 15//13 
vn 0.987688 -7.5904e-31 -0.156434
f 15//13 100//14 98//13 
f 100//14 15//13 17//14 
vn 0.994522 -7.65134e-31 -0.104528
f 17//14 102//15 100//14 
f 102//15 17//14 19//15 
vn 0.99863 -7.6913e-31 -0.052336
f 19//15 104//16 102//15 
f 104//16 19//15 21//16 
vn 1 -7.71019e-31 2.18738e-16
f 21//16 106//17 104//16 
f 106//17 21//16 23//17 
vn 0.99863 -7.70794e-31 0.052336
f 23//17 108//18 106//17 
f 108//18 23//17 25//18 
vn 0.994522 -7.68456e-31 0.104528
f 25//18 110//19 108//18 
f 110//19 25//18 27//19 
vn 0.987688 -7.64012e-31 0.156434
f 27//19 112//20 110//19 
f 112//20 27//19 29//20 
vn 0.978148 -7.57474e-31 0.207912
f 29//20 114//21 112//20 
f 114//21 29//20 31//21 
vn 0.965926 -7.48859e-31 0.258819
f 31//21 116//22 114//21 
f 116//22 31//21 33//22 
vn 0.951057 -7.38192e-31 0.309017
f 33//22 118//23 116//22 
f 118//23 33//22 35//23 
vn 0.93358 -7.25502e-31 0.358368
f 35//23 120//24 118//23 
f 120//24 35//23 37//24 
vn 0.913545 -7.10823e-31 0.406737
f 37//24 122//25 120//24 
f 122//25 37//24 39//25 
vn 0.891007 -6.94196e-31 0.45399
f 39//25 124//26 122//25 
f 124//26 39//25 41//26 
vn 0.866025 -6.75666e-31 0.5
f 41//26 126//27 124//26 
f 126//27 41//26 43//27 
vn 0.838671 -6.55285e-31 0.544639
f 43//27 128//28 126//27 
f 128//28 43//27 45//28 
vn 0.809017 -6.33107e-31 0.587785
f 45//28 130//29 128//28 
f 130//29 45//28 47//29 
vn 0.777146 -6.09194e-31 0.62932
f 47//29 132//30 130//29 
f 132//30 47//29 49//30 
vn 0.743145 -5.83611e-31 0.669131
f 49//30 134//31 132//30 
f 134//31 49//30 51//31 
vn 0.707107 -5.56428e-31 0.707107
f 51//31 136//32 134//31 
f 136//32 51//31 53//32 
vn 0.669131 -5.2772e-31 0.743145
f 136//32 55//33 138//33 
f 55//33 136//32 53//32 
vn 0.62932 -4.97566e-31 0.777146
f 138//33 57//34 140//34 
f 57//34 138//33 55//33 
vn 0.587785 -4.66048e-31 0.809017
f 140//34 59//35 142//35 
f 59//35 140//34 57//34 
vn 0.544639 -4.33253e-31 0.838671
f 142//35 61//36 144//36 
f 61//36 142//35 59//35 
vn 0.5 -3.9927e-31 0.866025
f 144//36 63//37 146//37 
f 63//37 144//36 61//36 
vn 0.45399 -3.64193e-31 0.891007
f 146//37 65//38 148//38 
f 65//38 146//37 63//37 
vn 0.406737 -3.28117e-31 0.913545
f 148//38 67//39 150//39 
f 67//39 148//38 65//38 
vn 0.358368 -2.91142e-31 0.93358
f 150//39 69//40 152//40 
f 69//40 150//39 67//39 
vn 0.309017 -2.5337e-31 0.951057
f 152//40 71//41 154//41 
f 71//41 152//40 69//40 
vn 0.258819 -2.14902e-31 0.965926
f 154//41 74//42 156//42 
f 74//42 154//41 71//41 
vn 0.207912 -1.75846e-31 0.978148
f 156//42 75//43 158//43 
f 75//43 156//42 74//42 
vn 0.156434 -1.36308e-31 0.987688
f 158//43 77//44 160//44 
f 77//44 158//43 75//43 
vn 0.104528 -9.63958e-32 0.994522
f 160//44 79//45 162//45 
f 79//45 160//44 77//44 
vn 0.052336 -5.62197e-32 0.99863
f 162//45 82//46 164//46 
f 82//46 162//45 79//45 
vn -1.34778e-16 -1.58895e-32 1
f 164//46 83//47 166//47 
f 83//47 164//46 82//46 
vn -0.052336 2.44843e-32 0.99863
f 166//47 81//48 165//48 
f 81//48 166//47 83//47 
vn -0.104528 6.47909e-32 0.994522
f 165//48 80//49 163//49 
f 80//49 165//48 81//48 
vn -0.156434 1.0492e-31 0.987688
f 163//49 78//50 161//50 
f 78//50 163//49 80//49 
vn -0.207912 1.44762e-31 0.978148
f 161//50 76//51 159//51 
f 76//51 161//50 78//50 
vn -0.258819 1.84206e-31 0.965926
f 159//51 73//52 157//52 
f 73//52 159//51 76//51 
vn -0.309017 2.23146e-31 0.951057
f 157//52 72//53 155//53 
f 72//53 157//52 73//52 
vn -0.358368 2.61474e-31 0.93358
f 155//53 70//54 153//54 
f 70//54 155//53 72//53 
vn -0.406737 2.99086e-31 0.913545
f 153//54 68//55 151//55 
f 68//55 153//54 70//54 
vn -0.45399 3.35878e-31 0.891007
f 151//55 66//56 149//56 
f 66//56 151//55 68//55 
vn -0.5 3.71749e-31 0.866025
f 149//56 64//57 147//57 
f 64//57 149//56 66//56 
vn -0.544639 4.06601e-31 0.838671
f 147//57 62//58 145//58 
f 62//58 147//57 64//57 
vn -0.587785 4.40339e-31 0.809017
f 145//58 60//59 143//59 
f 60//59 145//58 62//58 
vn -0.62932 4.72869e-31 0.777146
f 143//59 58//60 141//60 
f 58//60 143//59 60//59 
vn -0.669131 5.04104e-31 0.743145
f 141//60 56//61 139//61 
f 56//61 141//60 58//60 
vn -0.707107 5.33957e-31 0.707107
f 139//61 54//62 137//62 
f 54//62 139//61 56//61 
vn -0.743145 5.62346e-31 0.669131
f 54//62 135//63 137//62 
f 135//63 54//62 52//63 
vn -0.777146 5.89194e-31 0.62932
f 52//63 133//64 135//63 
f 133//64 52//63 50//64 
vn -0.809017 6.14428e-31 0.587785
f 50//64 131//65 133//64 
f 131//65 50//64 48//65 
vn -0.838671 6.37977e-31 0.544639
f 48//65 129//66 131//65 
f 129//66 48//65 46//66 
vn -0.866025 6.59777e-31 0.5
f 46//66 127//67 129//66 
f 127//67 46//66 44//67 
vn -0.891007 6.79769e-31 0.45399
f 44//67 125//68 127//67 
f 125//68 44//67 42//68 
vn -0.913545 6.97898e-31 0.406737
f 42//68 123//69 125//68 
f 123//69 42//68 40//69 
vn -0.93358 7.14114e-31 0.358368
f 40//69 121//70 123//69 
f 121//70 40//69 38//70 
vn -0.951057 7.28372e-31 0.309017
f 38//70 119//71 121//70 
f 119//71 38//70 36//71 
vn -0.965926 7.40634e-31 0.258819
f 36//71 117//72 119//71 
f 117//72 36//71 34//72 
vn -0.978148 7.50866e-31 0.207912
f 34//72 115//73 117//72 
f 115//73 34//72 32//73 
vn -0.987688 7.5904e-31 0.156434
f 32//73 113//74 115//73 
f 113//74 32//73 30//74 
vn -0.994522 7.65134e-31 0.104528
f 30//74 111//75 113//74 
f 111//75 30//74 28//75 
vn -0.99863 7.6913e-31 0.052336
f 28//75 109//76 111//75 
f 109//76 28//75 26//76 
vn -1 7.71019e-31 -5.30274e-17
f 26//76 107//77 109//76 
f 107//77 26//76 24//77 
vn -0.99863 7.70794e-31 -0.052336
f 24//77 105//78 107//77 
f 105//78 24//77 22//78 
vn -0.994522 7.68456e-31 -0.104528
f 22//78 103//79 105//78 
f 103//79 22//78 20//79 
vn -0.987688 7.64012e-31 -0.156434
f 20//79 101//80 103//79 
f 101//80 20//79 18//80 
vn -0.978148 7.57474e-31 -0.207912
f 18//80 99//81 101//80 
f 99//81 18//80 16//81 
vn -0.965926 7.48859e-31 -0.258819
f 16//81 97//82 99//81 
f 97//82 16//81 14//82 
vn -0.951057 7.38192e-31 -0.309017
f 14//82 95//83 97//82 
f 95//83 14//82 12//83 
vn -0.93358 7.25502e-31 -0.358368
f 12//83 93//84 95//83 
f 93//84 12//83 10//84 
vn -0.913545 7.10823e-31 -0.406737
f 10//84 91//85 93//84 
f 91//85 10//84 8//85 
vn -0.891007 6.94196e-31 -0.45399
f 8//85 89//86 91//85 
f 89//86 8//85 6//86 
f 6//86 87//3 89//86 
f 87//3 6//86 1//3 
