s 1
o 
g Group1 
usemtl Color_A05
v 51.8578 69.8 29.7
v 9.51772 69.8 29.2925
v 8.14216 69.8 29.7
vn 0 1 0
f 1//1 2//1 3//1 
v 11.0377 69.8 28.7543
f 2//1 1//1 4//1 
v 12.5275 69.8 28.1372
f 4//1 1//1 5//1 
v 13.9829 69.8 27.443
f 5//1 1//1 6//1 
v 15.4 69.8 26.6736
f 6//1 1//1 7//1 
v 16.7749 69.8 25.8311
f 7//1 1//1 8//1 
v 18.1038 69.8 24.9177
f 8//1 1//1 9//1 
v 19.3831 69.8 23.9361
f 9//1 1//1 10//1 
v 20.6092 69.8 22.8889
f 10//1 1//1 11//1 
v 21.7789 69.8 21.7789
f 11//1 1//1 12//1 
v 50.4823 69.8 29.2925
f 12//1 1//1 13//1 
v 22.8889 69.8 20.6092
f 12//1 13//1 14//1 
v 48.9623 69.8 28.7543
f 14//1 13//1 15//1 
v 23.9361 69.8 19.3831
f 14//1 15//1 16//1 
v 47.4725 69.8 28.1372
f 16//1 15//1 17//1 
v 24.9177 69.8 18.1038
f 16//1 17//1 18//1 
v 46.0171 69.8 27.443
f 18//1 17//1 19//1 
v 25.8311 69.8 16.7749
f 18//1 19//1 20//1 
v 44.6 69.8 26.6736
f 20//1 19//1 21//1 
v 43.2251 69.8 25.8311
f 20//1 21//1 22//1 
v 26.6736 69.8 15.4
f 20//1 22//1 23//1 
v 41.8962 69.8 24.9177
f 23//1 22//1 24//1 
v 27.443 69.8 13.9829
f 23//1 24//1 25//1 
v 40.6169 69.8 23.9361
f 25//1 24//1 26//1 
v 39.3908 69.8 22.8889
f 25//1 26//1 27//1 
v 28.1372 69.8 12.5275
f 25//1 27//1 28//1 
v 38.2211 69.8 21.7789
f 28//1 27//1 29//1 
v 37.1111 69.8 20.6092
f 28//1 29//1 30//1 
v 28.7543 69.8 11.0377
f 28//1 30//1 31//1 
v 36.0639 69.8 19.3831
f 31//1 30//1 32//1 
v 35.0823 69.8 18.1038
f 31//1 32//1 33//1 
v 34.1689 69.8 16.7749
f 31//1 33//1 34//1 
v 29.2925 69.8 9.51772
f 31//1 34//1 35//1 
v 33.3264 69.8 15.4
f 35//1 34//1 36//1 
v 32.557 69.8 13.9829
f 35//1 36//1 37//1 
v 31.8628 69.8 12.5275
f 35//1 37//1 38//1 
v 29.7505 69.8 7.97163
f 35//1 38//1 39//1 
v 31.2457 69.8 11.0377
f 39//1 38//1 40//1 
v 30.7075 69.8 9.51772
f 39//1 40//1 41//1 
v 30.2495 69.8 7.97163
f 39//1 41//1 42//1 
v 30 69.8 6.93245
f 39//1 42//1 43//1 
v 9.51772 30.2 29.2925
v 51.8578 30.2 29.7
v 8.14216 30.2 29.7
vn 0 -1 0
f 44//2 45//2 46//2 
v 11.0377 30.2 28.7543
f 45//2 44//2 47//2 
v 12.5275 30.2 28.1372
f 45//2 47//2 48//2 
v 13.9829 30.2 27.443
f 45//2 48//2 49//2 
v 15.4 30.2 26.6736
f 45//2 49//2 50//2 
v 16.7749 30.2 25.8311
f 45//2 50//2 51//2 
v 18.1038 30.2 24.9177
f 45//2 51//2 52//2 
v 19.3831 30.2 23.9361
f 45//2 52//2 53//2 
v 20.6092 30.2 22.8889
f 45//2 53//2 54//2 
v 21.7789 30.2 21.7789
f 45//2 54//2 55//2 
v 50.4823 30.2 29.2925
f 45//2 55//2 56//2 
v 22.8889 30.2 20.6092
f 56//2 55//2 57//2 
v 48.9623 30.2 28.7543
f 56//2 57//2 58//2 
v 23.9361 30.2 19.3831
f 58//2 57//2 59//2 
v 47.4725 30.2 28.1372
f 58//2 59//2 60//2 
v 24.9177 30.2 18.1038
f 60//2 59//2 61//2 
v 46.0171 30.2 27.443
f 60//2 61//2 62//2 
v 25.8311 30.2 16.7749
f 62//2 61//2 63//2 
v 44.6 30.2 26.6736
f 62//2 63//2 64//2 
v 43.2251 30.2 25.8311
f 64//2 63//2 65//2 
v 26.6736 30.2 15.4
f 65//2 63//2 66//2 
v 41.8962 30.2 24.9177
f 65//2 66//2 67//2 
v 27.443 30.2 13.9829
f 67//2 66//2 68//2 
v 40.6169 30.2 23.9361
f 67//2 68//2 69//2 
v 39.3908 30.2 22.8889
f 69//2 68//2 70//2 
v 28.1372 30.2 12.5275
f 70//2 68//2 71//2 
v 38.2211 30.2 21.7789
f 70//2 71//2 72//2 
v 37.1111 30.2 20.6092
f 72//2 71//2 73//2 
v 28.7543 30.2 11.0377
f 73//2 71//2 74//2 
v 36.0639 30.2 19.3831
f 73//2 74//2 75//2 
v 35.0823 30.2 18.1038
f 75//2 74//2 76//2 
v 34.1689 30.2 16.7749
f 76//2 74//2 77//2 
v 29.2925 30.2 9.51772
f 77//2 74//2 78//2 
v 33.3264 30.2 15.4
f 77//2 78//2 79//2 
v 32.557 30.2 13.9829
f 79//2 78//2 80//2 
v 31.8628 30.2 12.5275
f 80//2 78//2 81//2 
v 29.7505 30.2 7.97163
f 81//2 78//2 82//2 
v 31.2457 30.2 11.0377
f 81//2 82//2 83//2 
v 30.7075 30.2 9.51772
f 83//2 82//2 84//2 
v 30.2495 30.2 7.97163
f 84//2 82//2 85//2 
v 30 30.2 6.93245
f 85//2 82//2 86//2 
vn 0.284015 0 -0.95882
vn 0.309017 0 -0.951056
f 1//3 56//4 13//4 
f 56//4 1//3 45//3 
vn 0 0 1
f 46//5 1//5 3//5 
f 1//5 46//5 45//5 
vn -0.309017 0 -0.951057
vn -0.284015 0 -0.95882
f 44//6 3//7 2//6 
f 3//7 44//6 46//7 
vn -0.358368 0 -0.93358
f 4//8 44//6 2//6 
f 44//6 4//8 47//8 
vn -0.406737 0 -0.913545
f 48//9 4//8 5//9 
f 4//8 48//9 47//8 
vn -0.45399 0 -0.891007
f 49//10 5//9 6//10 
f 5//9 49//10 48//9 
vn -0.5 0 -0.866025
f 50//11 6//10 7//11 
f 6//10 50//11 49//10 
vn -0.544639 0 -0.83867
f 8//12 50//11 7//11 
f 50//11 8//12 51//12 
vn -0.587785 0 -0.809017
f 52//13 8//12 9//13 
f 8//12 52//13 51//12 
vn -0.62932 0 -0.777146
f 10//14 52//13 9//13 
f 52//13 10//14 53//14 
vn -0.669131 0 -0.743145
f 54//15 10//14 11//15 
f 10//14 54//15 53//14 
vn -0.707107 0 -0.707107
f 12//16 54//15 11//15 
f 54//15 12//16 55//16 
vn -0.743145 0 -0.669131
f 57//17 12//16 14//17 
f 12//16 57//17 55//16 
vn -0.777146 0 -0.62932
f 59//18 14//17 16//18 
f 14//17 59//18 57//17 
vn -0.809017 0 -0.587785
f 59//18 18//19 61//19 
f 18//19 59//18 16//18 
vn -0.83867 0 -0.544639
f 61//19 20//20 63//20 
f 20//20 61//19 18//19 
vn -0.866025 0 -0.5
f 63//20 23//21 66//21 
f 23//21 63//20 20//20 
vn -0.891007 0 -0.45399
f 68//22 23//21 25//22 
f 23//21 68//22 66//21 
vn -0.913545 0 -0.406737
f 71//23 25//22 28//23 
f 25//22 71//23 68//22 
vn -0.93358 0 -0.358368
f 74//24 28//23 31//24 
f 28//23 74//24 71//23 
vn -0.951057 0 -0.309017
f 78//25 31//24 35//25 
f 31//24 78//25 74//24 
vn -0.965926 0 -0.258819
f 82//26 35//25 39//26 
f 35//25 82//26 78//25 
vn -0.97237 0 -0.233445
f 86//27 39//26 43//27 
f 39//26 86//27 82//26 
vn 0.965926 0 -0.258819
vn 0.97237 0 -0.233445
f 42//28 86//29 43//29 
f 86//29 42//28 85//28 
vn 0.951057 0 -0.309017
f 41//30 85//28 42//28 
f 85//28 41//30 84//30 
vn 0.93358 0 -0.358368
f 40//31 84//30 41//30 
f 84//30 40//31 83//31 
vn 0.913545 0 -0.406737
f 38//32 83//31 40//31 
f 83//31 38//32 81//32 
vn 0.891007 0 -0.45399
f 37//33 81//32 38//32 
f 81//32 37//33 80//33 
vn 0.866025 0 -0.5
f 36//34 80//33 37//33 
f 80//33 36//34 79//34 
vn 0.838671 0 -0.544639
f 34//35 79//34 36//34 
f 79//34 34//35 77//35 
vn 0.809017 0 -0.587785
f 33//36 77//35 34//35 
f 77//35 33//36 76//36 
vn 0.777146 0 -0.62932
f 32//37 76//36 33//36 
f 76//36 32//37 75//37 
vn 0.743145 0 -0.669131
f 30//38 75//37 32//37 
f 75//37 30//38 73//38 
vn 0.707107 0 -0.707107
f 29//39 73//38 30//38 
f 73//38 29//39 72//39 
vn 0.669131 0 -0.743145
f 70//40 29//39 27//40 
f 29//39 70//40 72//39 
vn 0.62932 0 -0.777146
f 26//41 70//40 27//40 
f 70//40 26//41 69//41 
vn 0.587785 0 -0.809017
f 67//42 26//41 24//42 
f 26//41 67//42 69//41 
vn 0.544639 0 -0.83867
f 22//43 67//42 24//42 
f 67//42 22//43 65//43 
vn 0.5 0 -0.866025
f 64//44 22//43 21//44 
f 22//43 64//44 65//43 
vn 0.45399 0 -0.891007
f 19//45 64//44 21//44 
f 64//44 19//45 62//45 
vn 0.406737 0 -0.913545
f 60//46 19//45 17//46 
f 19//45 60//46 62//45 
vn 0.358368 0 -0.93358
f 58//47 17//46 15//47 
f 17//46 58//47 60//46 
f 56//4 15//47 13//4 
f 15//47 56//4 58//47 
