s 1
o 
g 
usemtl Color_A05
v 37.4284 79.8 16.3992
v 83.327 79.8 15.3
v 36.673 79.8 15.3
vn 5.04396e-31 1 5.77052e-16
f 1//1 2//1 3//1 
v 82.5716 79.8 16.3992
f 2//1 1//1 4//1 
v 81.6824 79.8 17.558
f 4//1 1//1 5//1 
v 38.3176 79.8 17.558
f 5//1 1//1 6//1 
v 80.7337 79.8 18.6687
f 5//1 6//1 7//1 
v 39.2663 79.8 18.6687
f 7//1 6//1 8//1 
v 79.7283 79.8 19.7283
f 7//1 8//1 9//1 
v 40.2717 79.8 19.7283
f 9//1 8//1 10//1 
v 78.6687 79.8 20.7337
f 9//1 10//1 11//1 
v 41.3313 79.8 20.7337
f 11//1 10//1 12//1 
v 77.558 79.8 21.6824
f 11//1 12//1 13//1 
v 42.442 79.8 21.6824
f 13//1 12//1 14//1 
v 76.3992 79.8 22.5716
f 13//1 14//1 15//1 
v 43.6008 79.8 22.5716
f 15//1 14//1 16//1 
v 75.1954 79.8 23.3989
f 15//1 16//1 17//1 
v 44.8046 79.8 23.3989
f 17//1 16//1 18//1 
v 73.95 79.8 24.1621
f 17//1 18//1 19//1 
v 46.05 79.8 24.1621
f 19//1 18//1 20//1 
v 72.6663 79.8 24.8591
f 19//1 20//1 21//1 
v 47.3337 79.8 24.8591
f 21//1 20//1 22//1 
v 71.348 79.8 25.4879
f 21//1 22//1 23//1 
v 48.652 79.8 25.4879
f 23//1 22//1 24//1 
v 69.9985 79.8 26.0469
f 23//1 24//1 25//1 
v 50.0015 79.8 26.0469
f 25//1 24//1 26//1 
v 68.6216 79.8 26.5345
f 25//1 26//1 27//1 
v 51.3784 79.8 26.5345
f 27//1 26//1 28//1 
v 67.2211 79.8 26.9493
f 27//1 28//1 29//1 
v 52.7789 79.8 26.9493
f 29//1 28//1 30//1 
v 65.8007 79.8 27.2903
f 29//1 30//1 31//1 
v 54.1993 79.8 27.2903
f 31//1 30//1 32//1 
v 64.3645 79.8 27.5565
f 31//1 32//1 33//1 
v 55.6355 79.8 27.5565
f 33//1 32//1 34//1 
v 62.9163 79.8 27.7472
f 33//1 34//1 35//1 
v 57.0837 79.8 27.7472
f 35//1 34//1 36//1 
v 58.5398 79.8 27.8618
f 35//1 36//1 37//1 
v 61.4602 79.8 27.8618
f 35//1 37//1 38//1 
v 60 79.8 27.9
f 38//1 37//1 39//1 
v 82.5716 50.2 16.3992
v 36.673 50.2 15.3
v 83.327 50.2 15.3
vn -5.04396e-31 -1 -5.77052e-16
f 40//2 41//2 42//2 
v 37.4284 50.2 16.3992
f 41//2 40//2 43//2 
v 81.6824 50.2 17.558
f 43//2 40//2 44//2 
v 38.3176 50.2 17.558
f 43//2 44//2 45//2 
v 80.7337 50.2 18.6687
f 45//2 44//2 46//2 
v 39.2663 50.2 18.6687
f 45//2 46//2 47//2 
v 79.7283 50.2 19.7283
f 47//2 46//2 48//2 
v 40.2717 50.2 19.7283
f 47//2 48//2 49//2 
v 78.6687 50.2 20.7337
f 49//2 48//2 50//2 
v 41.3313 50.2 20.7337
f 49//2 50//2 51//2 
v 77.558 50.2 21.6824
f 51//2 50//2 52//2 
v 42.442 50.2 21.6824
f 51//2 52//2 53//2 
v 76.3992 50.2 22.5716
f 53//2 52//2 54//2 
v 43.6008 50.2 22.5716
f 53//2 54//2 55//2 
v 75.1954 50.2 23.3989
f 55//2 54//2 56//2 
v 44.8046 50.2 23.3989
f 55//2 56//2 57//2 
v 73.95 50.2 24.1621
f 57//2 56//2 58//2 
v 46.05 50.2 24.1621
f 57//2 58//2 59//2 
v 72.6663 50.2 24.8591
f 59//2 58//2 60//2 
v 47.3337 50.2 24.8591
f 59//2 60//2 61//2 
v 71.348 50.2 25.4879
f 61//2 60//2 62//2 
v 48.652 50.2 25.4879
f 61//2 62//2 63//2 
v 69.9985 50.2 26.0469
f 63//2 62//2 64//2 
v 50.0015 50.2 26.0469
f 63//2 64//2 65//2 
v 68.6216 50.2 26.5345
f 65//2 64//2 66//2 
v 51.3784 50.2 26.5345
f 65//2 66//2 67//2 
v 67.2211 50.2 26.9493
f 67//2 66//2 68//2 
v 52.7789 50.2 26.9493
f 67//2 68//2 69//2 
v 65.8007 50.2 27.2903
f 69//2 68//2 70//2 
v 54.1993 50.2 27.2903
f 69//2 70//2 71//2 
v 64.3645 50.2 27.5565
f 71//2 70//2 72//2 
v 55.6355 50.2 27.5565
f 71//2 72//2 73//2 
v 62.9163 50.2 27.7472
f 73//2 72//2 74//2 
v 57.0837 50.2 27.7472
f 73//2 74//2 75//2 
v 61.4602 50.2 27.8618
f 75//2 74//2 76//2 
v 58.5398 50.2 27.8618
f 75//2 76//2 77//2 
v 60 50.2 27.9
f 77//2 76//2 78//2 
vn -0.809017 -3.39183e-16 0.587785
vn -0.824126 -3.26846e-16 0.566406
f 1//3 41//4 43//3 
f 41//4 1//3 3//4 
vn 0 5.77052e-16 -1
f 2//5 41//5 3//5 
f 41//5 2//5 42//5 
vn 0.824126 -3.26846e-16 0.566406
vn 0.809017 -3.39183e-16 0.587785
f 42//6 4//7 40//7 
f 4//7 42//6 2//6 
vn 0.777146 -3.63151e-16 0.62932
f 4//7 44//8 40//7 
f 44//8 4//7 5//8 
vn 0.743145 -3.86123e-16 0.669131
f 5//8 46//9 44//8 
f 46//9 5//8 7//9 
vn 0.707107 -4.08037e-16 0.707107
f 7//9 48//10 46//9 
f 48//10 7//9 9//10 
vn 0.669131 -4.28833e-16 0.743145
f 48//10 11//11 50//11 
f 11//11 48//10 9//10 
vn 0.62932 -4.48454e-16 0.777146
f 50//11 13//12 52//12 
f 13//12 50//11 11//11 
vn 0.587785 -4.66845e-16 0.809017
f 52//12 15//13 54//13 
f 15//13 52//12 13//12 
vn 0.544639 -4.83957e-16 0.838671
f 54//13 17//14 56//14 
f 17//14 54//13 15//13 
vn 0.5 -4.99742e-16 0.866025
f 56//14 19//15 58//15 
f 19//15 56//14 17//14 
vn 0.45399 -5.14157e-16 0.891007
f 58//15 21//16 60//16 
f 21//16 58//15 19//15 
vn 0.406737 -5.27163e-16 0.913545
f 60//16 23//17 62//17 
f 23//17 60//16 21//16 
vn 0.358368 -5.38725e-16 0.93358
f 62//17 25//18 64//18 
f 25//18 62//17 23//17 
vn 0.309017 -5.48809e-16 0.951057
f 64//18 27//19 66//19 
f 27//19 64//18 25//18 
vn 0.258819 -5.5739e-16 0.965926
f 66//19 29//20 68//20 
f 29//20 66//19 27//19 
vn 0.207912 -5.64442e-16 0.978148
f 68//20 31//21 70//21 
f 31//21 68//20 29//20 
vn 0.156434 -5.69948e-16 0.987688
f 70//21 33//22 72//22 
f 33//22 70//21 31//21 
vn 0.104528 -5.73891e-16 0.994522
f 72//22 35//23 74//23 
f 35//23 72//22 33//22 
vn 0.052336 -5.76261e-16 0.99863
f 74//23 38//24 76//24 
f 38//24 74//23 35//23 
vn 9.94264e-17 -5.77052e-16 1
f 76//24 39//25 78//25 
f 39//25 76//24 38//24 
vn -0.052336 -5.76261e-16 0.99863
f 78//25 37//26 77//26 
f 37//26 78//25 39//25 
vn -0.104528 -5.73891e-16 0.994522
f 77//26 36//27 75//27 
f 36//27 77//26 37//26 
vn -0.156434 -5.69948e-16 0.987688
f 75//27 34//28 73//28 
f 34//28 75//27 36//27 
vn -0.207912 -5.64442e-16 0.978148
f 73//28 32//29 71//29 
f 32//29 73//28 34//28 
vn -0.258819 -5.5739e-16 0.965926
f 71//29 30//30 69//30 
f 30//30 71//29 32//29 
vn -0.309017 -5.48809e-16 0.951057
f 69//30 28//31 67//31 
f 28//31 69//30 30//30 
vn -0.358368 -5.38725e-16 0.93358
f 67//31 26//32 65//32 
f 26//32 67//31 28//31 
vn -0.406737 -5.27163e-16 0.913545
f 65//32 24//33 63//33 
f 24//33 65//32 26//32 
vn -0.45399 -5.14157e-16 0.891007
f 63//33 22//34 61//34 
f 22//34 63//33 24//33 
vn -0.5 -4.99742e-16 0.866025
f 61//34 20//35 59//35 
f 20//35 61//34 22//34 
vn -0.544639 -4.83957e-16 0.838671
f 59//35 18//36 57//36 
f 18//36 59//35 20//35 
vn -0.587785 -4.66845e-16 0.809017
f 57//36 16//37 55//37 
f 16//37 57//36 18//36 
vn -0.62932 -4.48454e-16 0.777146
f 55//37 14//38 53//38 
f 14//38 55//37 16//37 
vn -0.669131 -4.28833e-16 0.743145
f 53//38 12//39 51//39 
f 12//39 53//38 14//38 
vn -0.707107 -4.08037e-16 0.707107
f 51//39 10//40 49//40 
f 10//40 51//39 12//39 
vn -0.743145 -3.86123e-16 0.669131
f 10//40 47//41 49//40 
f 47//41 10//40 8//41 
vn -0.777146 -3.63151e-16 0.62932
f 8//41 45//42 47//41 
f 45//42 8//41 6//42 
f 6//42 43//3 45//42 
f 43//3 6//42 1//3 
