s 1
o 
g Group1 
usemtl Color_D04
v 23.976 42.74 4.84534
v 23.7328 42.74 4.93386
v 23.8485 42.74 4.87359
vn 0 -1 0
f 1//1 2//1 3//1 
v 24.1064 42.74 4.85103
f 2//1 1//1 4//1 
v 23.6365 42.74 5.02204
f 2//1 4//1 5//1 
v 24.2309 42.74 4.89028
f 5//1 4//1 6//1 
v 23.5664 42.74 5.13213
f 5//1 6//1 7//1 
v 24.3409 42.74 4.96041
f 7//1 6//1 8//1 
v 23.5271 42.74 5.25661
f 7//1 8//1 9//1 
v 24.4291 42.74 5.05665
f 9//1 8//1 10//1 
v 23.5214 42.74 5.38701
f 9//1 10//1 11//1 
v 24.4894 42.74 5.17243
f 11//1 10//1 12//1 
v 23.5497 42.74 5.51445
f 11//1 12//1 13//1 
v 24.5176 42.74 5.29986
f 13//1 12//1 14//1 
v 23.61 42.74 5.63022
f 13//1 14//1 15//1 
v 24.5119 42.74 5.43026
f 15//1 14//1 16//1 
v 23.6982 42.74 5.72646
f 15//1 16//1 17//1 
v 24.4727 42.74 5.55475
f 17//1 16//1 18//1 
v 23.8082 42.74 5.79659
f 17//1 18//1 19//1 
v 24.4026 42.74 5.66483
f 19//1 18//1 20//1 
v 23.9327 42.74 5.83584
f 19//1 20//1 21//1 
v 24.3063 42.74 5.75301
f 21//1 20//1 22//1 
v 24.0631 42.74 5.84153
f 21//1 22//1 23//1 
v 24.1906 42.74 5.81328
f 23//1 22//1 24//1 
v 23.7328 46.74 4.93386
v 23.976 46.74 4.84534
v 23.8485 46.74 4.87359
vn 0 1 0
f 25//2 26//2 27//2 
v 23.6365 46.74 5.02204
f 26//2 25//2 28//2 
v 24.1064 46.74 4.85103
f 26//2 28//2 29//2 
v 23.5664 46.74 5.13213
f 29//2 28//2 30//2 
v 24.2309 46.74 4.89028
f 29//2 30//2 31//2 
v 23.5271 46.74 5.25661
f 31//2 30//2 32//2 
v 24.3409 46.74 4.96041
f 31//2 32//2 33//2 
v 23.5214 46.74 5.38701
f 33//2 32//2 34//2 
v 24.4291 46.74 5.05665
f 33//2 34//2 35//2 
v 23.5497 46.74 5.51445
f 35//2 34//2 36//2 
v 24.4894 46.74 5.17243
f 35//2 36//2 37//2 
v 23.61 46.74 5.63022
f 37//2 36//2 38//2 
v 24.5176 46.74 5.29986
f 37//2 38//2 39//2 
v 23.6982 46.74 5.72646
f 39//2 38//2 40//2 
v 24.5119 46.74 5.43026
f 39//2 40//2 41//2 
v 23.8082 46.74 5.79659
f 41//2 40//2 42//2 
v 24.4727 46.74 5.55475
f 41//2 42//2 43//2 
v 23.9327 46.74 5.83584
f 43//2 42//2 44//2 
v 24.4026 46.74 5.66483
f 43//2 44//2 45//2 
v 24.0631 46.74 5.84153
f 45//2 44//2 46//2 
v 24.3063 46.74 5.75301
f 45//2 46//2 47//2 
v 24.1906 46.74 5.81328
f 47//2 46//2 48//2 
vn 0.996195 0 -0.0871558
vn 0.984808 0 0.173648
f 39//3 16//4 14//3 
f 16//4 39//3 41//4 
vn 0.422618 0 -0.906308
vn 0.173648 0 -0.984808
f 31//5 4//6 29//6 
f 4//6 31//5 6//5 
vn 0.642788 0 -0.766044
vn 0.819152 0 -0.573576
f 33//7 10//8 8//7 
f 10//8 33//7 35//8 
vn -0.573576 0 -0.819152
vn -0.766044 0 -0.642788
f 25//9 5//10 28//10 
f 5//10 25//9 2//9 
vn -0.0871558 0 -0.996195
f 29//6 1//11 26//11 
f 1//11 29//6 4//6 
vn 0.939693 0 -0.34202
f 37//12 14//3 12//12 
f 14//3 37//12 39//3 
vn 0.573576 0 0.819152
vn 0.34202 0 0.939693
f 22//13 48//14 24//14 
f 48//14 22//13 47//13 
vn -0.173648 0 0.984808
vn -0.422618 0 0.906308
f 21//15 42//16 19//16 
f 42//16 21//15 44//15 
vn -0.819152 0 0.573576
vn -0.939693 0 0.34202
f 38//17 13//18 15//17 
f 13//18 38//17 36//18 
f 31//5 8//7 6//5 
f 8//7 31//5 33//7 
vn -0.984808 0 -0.173648
vn -0.906308 0 -0.422618
f 32//19 7//20 9//19 
f 7//20 32//19 30//20 
vn -0.34202 0 -0.939693
f 27//21 2//9 25//9 
f 2//9 27//21 3//21 
f 26//11 3//21 27//21 
f 3//21 26//11 1//11 
vn 0.0871557 0 0.996195
f 23//22 44//15 21//15 
f 44//15 23//22 46//22 
vn -0.642788 0 0.766044
f 40//23 15//17 17//23 
f 15//17 40//23 38//17 
f 24//14 46//22 23//22 
f 46//22 24//14 48//14 
f 42//16 17//23 19//16 
f 17//23 42//16 40//23 
f 35//8 12//12 10//8 
f 12//12 35//8 37//12 
vn 0.906308 0 0.422618
f 41//4 18//24 16//4 
f 18//24 41//4 43//24 
vn 0.766044 0 0.642788
f 18//24 45//25 20//25 
f 45//25 18//24 43//24 
f 20//25 47//13 22//13 
f 47//13 20//25 45//25 
vn -0.996195 0 0.0871557
f 34//26 9//19 11//26 
f 9//19 34//26 32//19 
f 36//18 11//26 13//18 
f 11//26 36//18 34//26 
f 28//10 7//20 30//20 
f 7//20 28//10 5//10 
v 20.529 39.24 -4.77285
v 20.4132 35.24 -4.71258
v 20.4132 39.24 -4.71258
f 49//21 50//9 51//9 
v 20.529 35.24 -4.77285
f 50//9 49//21 52//21 
v 20.6564 39.24 -4.8011
f 53//11 52//21 49//21 
v 20.6564 35.24 -4.8011
f 52//21 53//11 54//11 
f 54//1 50//1 52//1 
v 20.7868 35.24 -4.7954
f 50//1 54//1 55//1 
v 20.317 35.24 -4.62439
f 50//1 55//1 56//1 
v 20.9113 35.24 -4.75615
f 56//1 55//1 57//1 
v 20.2468 35.24 -4.51431
f 56//1 57//1 58//1 
v 21.0214 35.24 -4.68602
f 58//1 57//1 59//1 
v 20.2076 35.24 -4.38982
f 58//1 59//1 60//1 
v 21.1096 35.24 -4.58979
f 60//1 59//1 61//1 
v 20.2019 35.24 -4.25942
f 60//1 61//1 62//1 
v 21.1698 35.24 -4.47401
f 62//1 61//1 63//1 
v 20.2302 35.24 -4.13199
f 62//1 63//1 64//1 
v 21.1981 35.24 -4.34658
f 64//1 63//1 65//1 
v 20.2904 35.24 -4.01621
f 64//1 65//1 66//1 
v 21.1924 35.24 -4.21618
f 66//1 65//1 67//1 
v 20.3786 35.24 -3.91998
f 66//1 67//1 68//1 
v 21.1532 35.24 -4.09169
f 68//1 67//1 69//1 
v 20.4887 35.24 -3.84985
f 68//1 69//1 70//1 
v 21.083 35.24 -3.98161
f 70//1 69//1 71//1 
v 20.6132 35.24 -3.8106
f 70//1 71//1 72//1 
v 20.9868 35.24 -3.89342
f 72//1 71//1 73//1 
v 20.7436 35.24 -3.8049
f 72//1 73//1 74//1 
v 20.871 35.24 -3.83315
f 74//1 73//1 75//1 
v 21.1096 39.24 -4.58979
f 76//8 63//12 61//8 
v 21.1698 39.24 -4.47401
f 63//12 76//8 77//12 
f 51//2 53//2 49//2 
v 20.317 39.24 -4.62439
f 53//2 51//2 78//2 
v 20.7868 39.24 -4.7954
f 53//2 78//2 79//2 
v 20.2468 39.24 -4.51431
f 79//2 78//2 80//2 
v 20.9113 39.24 -4.75615
f 79//2 80//2 81//2 
v 20.2076 39.24 -4.38982
f 81//2 80//2 82//2 
v 21.0214 39.24 -4.68602
f 81//2 82//2 83//2 
v 20.2019 39.24 -4.25942
f 83//2 82//2 84//2 
f 83//2 84//2 76//2 
v 20.2302 39.24 -4.13199
f 76//2 84//2 85//2 
f 76//2 85//2 77//2 
v 20.2904 39.24 -4.01621
f 77//2 85//2 86//2 
v 21.1981 39.24 -4.34658
f 77//2 86//2 87//2 
v 20.3786 39.24 -3.91998
f 87//2 86//2 88//2 
v 21.1924 39.24 -4.21618
f 87//2 88//2 89//2 
v 20.4887 39.24 -3.84985
f 89//2 88//2 90//2 
v 21.1532 39.24 -4.09169
f 89//2 90//2 91//2 
v 20.6132 39.24 -3.8106
f 91//2 90//2 92//2 
v 21.083 39.24 -3.98161
f 91//2 92//2 93//2 
v 20.7436 39.24 -3.8049
f 93//2 92//2 94//2 
v 20.9868 39.24 -3.89342
f 93//2 94//2 95//2 
v 20.871 39.24 -3.83315
f 95//2 94//2 96//2 
f 90//16 68//23 70//16 
f 68//23 90//16 88//23 
f 72//15 90//16 70//16 
f 90//16 72//15 92//15 
f 81//5 59//7 57//5 
f 59//7 81//5 83//7 
f 83//7 61//8 59//7 
f 61//8 83//7 76//8 
f 51//9 56//10 78//10 
f 56//10 51//9 50//9 
f 84//26 60//19 62//26 
f 60//19 84//26 82//19 
f 79//6 54//11 53//11 
f 54//11 79//6 55//6 
f 81//5 55//6 79//6 
f 55//6 81//5 57//5 
f 87//3 67//4 65//3 
f 67//4 87//3 89//4 
f 73//13 96//14 75//14 
f 96//14 73//13 95//13 
f 74//22 92//15 72//15 
f 92//15 74//22 94//22 
f 71//25 95//13 73//13 
f 95//13 71//25 93//25 
f 89//4 69//24 67//4 
f 69//24 89//4 91//24 
v 14.8856 61.74 8.00348
v 14.7611 57.74 7.96423
v 14.7611 61.74 7.96423
f 97//5 98//6 99//6 
v 14.8856 57.74 8.00348
f 98//6 97//5 100//5 
v 14.961 57.74 8.86621
v 14.8453 61.74 8.92648
v 14.8453 57.74 8.92648
f 101//13 102//14 103//14 
v 14.961 61.74 8.86621
f 102//14 101//13 104//13 
f 82//19 58//20 60//19 
f 58//20 82//19 80//20 
v 14.5874 57.74 8.94904
v 14.4629 61.74 8.90979
v 14.4629 57.74 8.90979
f 105//15 106//16 107//16 
v 14.5874 61.74 8.94904
f 106//16 105//15 108//15 
f 69//24 93//25 71//25 
f 93//25 69//24 91//24 
f 85//18 62//26 64//18 
f 62//26 85//18 84//26 
f 88//23 66//17 68//23 
f 66//17 88//23 86//17 
f 75//14 94//22 74//22 
f 94//22 75//14 96//14 
f 77//12 65//3 63//12 
f 65//3 77//12 87//3 
f 78//10 58//20 80//20 
f 58//20 78//10 56//10 
v 14.6307 57.74 7.95854
v 14.3875 57.74 8.04706
v 14.5032 57.74 7.98679
f 109//1 110//1 111//1 
f 110//1 109//1 98//1 
v 14.2912 57.74 8.13524
f 110//1 98//1 112//1 
f 112//1 98//1 100//1 
v 14.2211 57.74 8.24533
f 112//1 100//1 113//1 
v 14.9956 57.74 8.07361
f 113//1 100//1 114//1 
v 14.1818 57.74 8.36981
f 113//1 114//1 115//1 
v 15.0838 57.74 8.16985
f 115//1 114//1 116//1 
v 14.1762 57.74 8.50021
f 115//1 116//1 117//1 
v 15.1441 57.74 8.28562
f 117//1 116//1 118//1 
v 14.2044 57.74 8.62764
f 117//1 118//1 119//1 
v 15.1723 57.74 8.41306
f 119//1 118//1 120//1 
v 14.2647 57.74 8.74342
f 119//1 120//1 121//1 
v 15.1667 57.74 8.54346
f 121//1 120//1 122//1 
v 14.3529 57.74 8.83965
f 121//1 122//1 123//1 
v 15.1274 57.74 8.66794
f 123//1 122//1 124//1 
f 123//1 124//1 107//1 
v 15.0573 57.74 8.77803
f 107//1 124//1 125//1 
f 107//1 125//1 105//1 
f 105//1 125//1 101//1 
v 14.7178 57.74 8.95473
f 105//1 101//1 126//1 
f 126//1 101//1 103//1 
v 14.6307 61.74 7.95854
v 14.5032 61.74 7.98679
f 127//11 111//21 128//21 
f 111//21 127//11 109//11 
f 86//17 64//18 66//17 
f 64//18 86//17 85//18 
v 14.2044 61.74 8.62764
f 129//18 117//26 119//18 
v 14.1762 61.74 8.50021
f 117//26 129//18 130//26 
f 99//6 109//11 127//11 
f 109//11 99//6 98//6 
f 106//16 123//23 107//16 
v 14.3529 61.74 8.83965
f 123//23 106//16 131//23 
f 125//25 104//13 101//13 
v 15.0573 61.74 8.77803
f 104//13 125//25 132//25 
v 14.2912 61.74 8.13524
v 14.2211 61.74 8.24533
f 133//10 113//20 134//20 
f 113//20 133//10 112//10 
v 14.3875 61.74 8.04706
f 135//9 112//10 133//10 
f 112//10 135//9 110//9 
v 14.9956 61.74 8.07361
f 136//7 116//8 114//7 
v 15.0838 61.74 8.16985
f 116//8 136//7 137//8 
f 124//24 132//25 125//25 
v 15.1274 61.74 8.66794
f 132//25 124//24 138//24 
v 14.1818 61.74 8.36981
f 139//19 113//20 115//19 
f 113//20 139//19 134//20 
f 135//2 127//2 128//2 
f 127//2 135//2 133//2 
f 127//2 133//2 99//2 
f 99//2 133//2 134//2 
f 99//2 134//2 97//2 
f 97//2 134//2 139//2 
f 97//2 139//2 136//2 
f 136//2 139//2 130//2 
f 136//2 130//2 137//2 
f 137//2 130//2 129//2 
v 15.1441 61.74 8.28562
f 137//2 129//2 140//2 
v 14.2647 61.74 8.74342
f 140//2 129//2 141//2 
v 15.1723 61.74 8.41306
f 140//2 141//2 142//2 
f 142//2 141//2 131//2 
v 15.1667 61.74 8.54346
f 142//2 131//2 143//2 
f 143//2 131//2 106//2 
f 143//2 106//2 138//2 
f 138//2 106//2 108//2 
f 138//2 108//2 132//2 
v 14.7178 61.74 8.95473
f 132//2 108//2 144//2 
f 132//2 144//2 104//2 
f 104//2 144//2 102//2 
f 126//22 108//15 105//15 
f 108//15 126//22 144//22 
f 137//8 118//12 116//8 
f 118//12 137//8 140//12 
f 131//23 121//17 123//23 
f 121//17 131//23 141//17 
f 128//21 110//9 135//9 
f 110//9 128//21 111//21 
f 103//14 144//22 126//22 
f 144//22 103//14 102//14 
f 140//12 120//3 118//12 
f 120//3 140//12 142//3 
f 142//3 122//4 120//3 
f 122//4 142//3 143//4 
f 141//17 119//18 121//17 
f 119//18 141//17 129//18 
f 97//5 114//7 100//5 
f 114//7 97//5 136//7 
f 143//4 124//24 122//4 
f 124//24 143//4 138//24 
f 130//26 115//19 117//26 
f 115//19 130//26 139//19 
v 11.576 54.24 -0.716109
v 11.5368 50.24 -0.591623
v 11.576 50.24 -0.716109
f 145//4 146//24 147//4 
v 11.5368 54.24 -0.591623
f 146//24 145//4 148//24 
v 11.0401 54.24 -1.30103
v 10.9126 50.24 -1.27278
v 10.9126 54.24 -1.27278
f 149//11 150//21 151//21 
v 11.0401 50.24 -1.30103
f 150//21 149//11 152//11 
v 10.7969 50.24 -1.21251
f 152//1 153//1 150//1 
v 11.1705 50.24 -1.29534
f 153//1 152//1 154//1 
v 10.7006 50.24 -1.12433
f 153//1 154//1 155//1 
v 11.295 50.24 -1.25609
f 155//1 154//1 156//1 
v 10.6305 50.24 -1.01424
f 155//1 156//1 157//1 
v 11.405 50.24 -1.18595
f 157//1 156//1 158//1 
v 10.5912 50.24 -0.889757
f 157//1 158//1 159//1 
v 11.4932 50.24 -1.08972
f 159//1 158//1 160//1 
v 10.5855 50.24 -0.759355
f 159//1 160//1 161//1 
v 11.5535 50.24 -0.973943
f 161//1 160//1 162//1 
v 10.6138 50.24 -0.631923
f 161//1 162//1 163//1 
v 11.5817 50.24 -0.846511
f 163//1 162//1 164//1 
v 10.6741 50.24 -0.516144
f 163//1 164//1 165//1 
f 165//1 164//1 147//1 
v 10.7622 50.24 -0.41991
f 165//1 147//1 166//1 
f 166//1 147//1 146//1 
v 10.8723 50.24 -0.349779
f 166//1 146//1 167//1 
v 11.4667 50.24 -0.481539
f 167//1 146//1 168//1 
v 10.9968 50.24 -0.310529
f 167//1 168//1 169//1 
v 11.3704 50.24 -0.393357
f 169//1 168//1 170//1 
v 11.1272 50.24 -0.304835
f 169//1 170//1 171//1 
v 11.2547 50.24 -0.333086
f 171//1 170//1 172//1 
v 10.7969 54.24 -1.21251
f 151//21 153//9 173//9 
f 153//9 151//21 150//21 
v 10.8723 54.24 -0.349779
f 169//15 174//16 167//16 
v 10.9968 54.24 -0.310529
f 174//16 169//15 175//15 
v 11.5817 54.24 -0.846511
f 176//3 147//4 164//3 
f 147//4 176//3 145//4 
v 11.3704 54.24 -0.393357
f 168//25 177//13 170//13 
v 11.4667 54.24 -0.481539
f 177//13 168//25 178//25 
v 11.1705 54.24 -1.29534
f 179//6 152//11 149//11 
f 152//11 179//6 154//6 
v 11.295 54.24 -1.25609
f 180//5 154//6 179//6 
f 154//6 180//5 156//5 
f 180//5 158//7 156//5 
v 11.405 54.24 -1.18595
f 158//7 180//5 181//7 
v 10.7622 54.24 -0.41991
f 182//23 165//17 166//23 
v 10.6741 54.24 -0.516144
f 165//17 182//23 183//17 
f 174//16 166//23 167//16 
f 166//23 174//16 182//23 
v 10.7006 54.24 -1.12433
v 10.6305 54.24 -1.01424
f 184//10 157//20 185//20 
f 157//20 184//10 155//10 
f 183//17 163//18 165//17 
v 10.6138 54.24 -0.631923
f 163//18 183//17 186//18 
f 181//7 160//8 158//7 
v 11.4932 54.24 -1.08972
f 160//8 181//7 187//8 
v 11.5535 54.24 -0.973943
f 188//12 164//3 162//12 
f 164//3 188//12 176//3 
f 173//9 155//10 184//10 
f 155//10 173//9 153//9 
v 10.5855 54.24 -0.759355
f 189//26 159//19 161//26 
v 10.5912 54.24 -0.889757
f 159//19 189//26 190//19 
f 146//24 178//25 168//25 
f 178//25 146//24 148//24 
f 187//8 162//12 160//8 
f 162//12 187//8 188//12 
v 11.1272 54.24 -0.304835
f 172//14 191//22 171//22 
v 11.2547 54.24 -0.333086
f 191//22 172//14 192//14 
f 171//22 175//15 169//15 
f 175//15 171//22 191//22 
f 170//13 192//14 172//14 
f 192//14 170//13 177//13 
f 173//2 149//2 151//2 
f 149//2 173//2 184//2 
f 149//2 184//2 179//2 
f 179//2 184//2 185//2 
f 179//2 185//2 180//2 
f 180//2 185//2 190//2 
f 180//2 190//2 181//2 
f 181//2 190//2 189//2 
f 181//2 189//2 187//2 
f 187//2 189//2 186//2 
f 187//2 186//2 188//2 
f 188//2 186//2 183//2 
f 188//2 183//2 176//2 
f 176//2 183//2 182//2 
f 176//2 182//2 145//2 
f 145//2 182//2 174//2 
f 145//2 174//2 148//2 
f 148//2 174//2 175//2 
f 148//2 175//2 178//2 
f 178//2 175//2 191//2 
f 178//2 191//2 177//2 
f 177//2 191//2 192//2 
f 186//18 161//26 163//18 
f 161//26 186//18 189//26 
f 190//19 157//20 159//19 
f 157//20 190//19 185//20 
