s 1
o 
g 
usemtl Lung
v -39.152 70 -71.759
v -35.558 -70 -72.8108
v -39.152 -70 -71.759
vn -0.364471 8.10222e-18 -0.931215
vn -0.19509 -1.05431e-16 -0.980785
f 1//1 2//2 3//1 
v -35.558 70 -72.8108
f 2//2 1//1 4//2 
v -31.8351 -70 -73.2144
vn -0.0196337 -2.1568e-16 -0.999807
f 4//2 5//3 2//2 
v -31.8351 70 -73.2144
f 5//3 4//2 6//3 
v -28.0992 -70 -72.9573
vn 0.156434 -3.19212e-16 -0.987688
f 6//3 7//4 5//3 
v -28.0992 70 -72.9573
f 7//4 6//3 8//4 
v -24.4667 -70 -72.0474
vn 0.32763 -4.12801e-16 -0.944806
f 8//4 9//5 7//4 
v -24.4667 70 -72.0474
f 9//5 8//4 10//5 
v -21.0507 -70 -70.5131
vn 0.488621 -4.93532e-16 -0.872496
f 10//5 11//6 9//5 
v -21.0507 70 -70.5131
f 11//6 10//5 12//6 
vn 6.03684e-16 1 -2.27577e-16
f 4//7 8//7 6//7 
f 8//7 4//7 10//7 
f 10//7 4//7 1//7 
f 10//7 1//7 12//7 
v -42.5051 70 -70.0917
f 12//7 1//7 13//7 
v -17.9576 70 -68.4021
f 12//7 13//7 14//7 
v -44.6604 70 -68.771
f 14//7 13//7 15//7 
v -48.1984 70 -66.3394
f 14//7 15//7 16//7 
v -15.2838 70 -65.7803
f 14//7 16//7 17//7 
v -51.6043 70 -63.726
f 17//7 16//7 18//7 
v -13.1126 70 -62.7293
f 17//7 18//7 19//7 
v -54.8687 70 -60.9379
f 19//7 18//7 20//7 
v -11.5115 70 -59.3441
f 19//7 20//7 21//7 
v -57.9828 70 -57.9828
f 21//7 20//7 22//7 
v -10.5304 70 -55.7301
f 21//7 22//7 23//7 
v -60.9379 70 -54.8687
f 23//7 22//7 24//7 
v -10.2 70 -52
f 23//7 24//7 25//7 
v -63.726 70 -51.6043
f 25//7 24//7 26//7 
v -10.2 70 52
f 25//7 26//7 27//7 
v -66.3394 70 -48.1984
f 27//7 26//7 28//7 
v -68.771 70 -44.6604
f 27//7 28//7 29//7 
v -71.0141 70 -41
f 27//7 29//7 30//7 
v -73.0625 70 -37.2272
f 27//7 30//7 31//7 
v -74.9107 70 -33.3524
f 27//7 31//7 32//7 
v -76.5536 70 -29.3862
f 27//7 32//7 33//7 
v -77.9866 70 -25.3394
f 27//7 33//7 34//7 
v -79.2059 70 -21.2232
f 27//7 34//7 35//7 
v -80.2081 70 -17.0488
f 27//7 35//7 36//7 
v -80.9904 70 -12.8276
f 27//7 36//7 37//7 
v -81.5508 70 -8.57133
f 27//7 37//7 38//7 
v -81.8876 70 -4.29155
f 27//7 38//7 39//7 
v -82 70 -1.24079e-13
f 27//7 39//7 40//7 
v -81.8876 70 4.29155
f 27//7 40//7 41//7 
v -81.5508 70 8.57133
f 27//7 41//7 42//7 
v -80.9904 70 12.8276
f 27//7 42//7 43//7 
v -80.2081 70 17.0488
f 27//7 43//7 44//7 
v -79.2059 70 21.2232
f 27//7 44//7 45//7 
v -77.9866 70 25.3394
f 27//7 45//7 46//7 
v -76.5536 70 29.3862
f 27//7 46//7 47//7 
v -74.9107 70 33.3524
f 27//7 47//7 48//7 
v -73.0625 70 37.2272
f 27//7 48//7 49//7 
v -71.0141 70 41
f 27//7 49//7 50//7 
v -68.771 70 44.6604
f 27//7 50//7 51//7 
v -66.3394 70 48.1984
f 27//7 51//7 52//7 
v -63.726 70 51.6043
f 27//7 52//7 53//7 
v -60.9379 70 54.8687
f 27//7 53//7 54//7 
v -10.5304 70 55.7301
f 27//7 54//7 55//7 
v -57.9828 70 57.9828
f 55//7 54//7 56//7 
v -11.5115 70 59.3441
f 55//7 56//7 57//7 
v -54.8687 70 60.9379
f 57//7 56//7 58//7 
v -13.1126 70 62.7293
f 57//7 58//7 59//7 
v -51.6043 70 63.726
f 59//7 58//7 60//7 
v -15.2838 70 65.7803
f 59//7 60//7 61//7 
v -48.1984 70 66.3394
f 61//7 60//7 62//7 
v -17.9576 70 68.4021
f 61//7 62//7 63//7 
v -44.6604 70 68.771
f 63//7 62//7 64//7 
v -21.0507 70 70.5131
f 63//7 64//7 65//7 
v -42.5051 70 70.0917
f 65//7 64//7 66//7 
v -39.152 70 71.759
f 65//7 66//7 67//7 
v -24.4667 70 72.0474
f 65//7 67//7 68//7 
v -35.558 70 72.8108
f 68//7 67//7 69//7 
v -28.0992 70 72.9573
f 68//7 69//7 70//7 
v -31.8351 70 73.2144
f 70//7 69//7 71//7 
vn -6.03684e-16 -1 2.27577e-16
f 7//8 2//8 5//8 
f 2//8 7//8 9//8 
f 2//8 9//8 3//8 
f 3//8 9//8 11//8 
v -42.5051 -70 -70.0917
f 3//8 11//8 72//8 
v -17.9576 -70 -68.4021
f 72//8 11//8 73//8 
v -44.6604 -70 -68.771
f 72//8 73//8 74//8 
v -48.1984 -70 -66.3394
f 74//8 73//8 75//8 
v -15.2838 -70 -65.7803
f 75//8 73//8 76//8 
v -51.6043 -70 -63.726
f 75//8 76//8 77//8 
v -13.1126 -70 -62.7293
f 77//8 76//8 78//8 
v -54.8687 -70 -60.9379
f 77//8 78//8 79//8 
v -11.5115 -70 -59.3441
f 79//8 78//8 80//8 
v -57.9828 -70 -57.9828
f 79//8 80//8 81//8 
v -10.5304 -70 -55.7301
f 81//8 80//8 82//8 
v -60.9379 -70 -54.8687
f 81//8 82//8 83//8 
v -10.2 -70 -52
f 83//8 82//8 84//8 
v -63.726 -70 -51.6043
f 83//8 84//8 85//8 
v -10.2 -70 52
f 85//8 84//8 86//8 
v -66.3394 -70 -48.1984
f 85//8 86//8 87//8 
v -68.771 -70 -44.6604
f 87//8 86//8 88//8 
v -71.0141 -70 -41
f 88//8 86//8 89//8 
v -73.0625 -70 -37.2272
f 89//8 86//8 90//8 
v -74.9107 -70 -33.3524
f 90//8 86//8 91//8 
v -76.5536 -70 -29.3862
f 91//8 86//8 92//8 
v -77.9866 -70 -25.3394
f 92//8 86//8 93//8 
v -79.2059 -70 -21.2232
f 93//8 86//8 94//8 
v -80.2081 -70 -17.0488
f 94//8 86//8 95//8 
v -80.9904 -70 -12.8276
f 95//8 86//8 96//8 
v -81.5508 -70 -8.57133
f 96//8 86//8 97//8 
v -81.8876 -70 -4.29155
f 97//8 86//8 98//8 
v -82 -70 -7.89591e-14
f 98//8 86//8 99//8 
v -81.8876 -70 4.29155
f 99//8 86//8 100//8 
v -81.5508 -70 8.57133
f 100//8 86//8 101//8 
v -80.9904 -70 12.8276
f 101//8 86//8 102//8 
v -80.2081 -70 17.0488
f 102//8 86//8 103//8 
v -79.2059 -70 21.2232
f 103//8 86//8 104//8 
v -77.9866 -70 25.3394
f 104//8 86//8 105//8 
v -76.5536 -70 29.3862
f 105//8 86//8 106//8 
v -74.9107 -70 33.3524
f 106//8 86//8 107//8 
v -73.0625 -70 37.2272
f 107//8 86//8 108//8 
v -71.0141 -70 41
f 108//8 86//8 109//8 
v -68.771 -70 44.6604
f 109//8 86//8 110//8 
v -66.3394 -70 48.1984
f 110//8 86//8 111//8 
v -63.726 -70 51.6043
f 111//8 86//8 112//8 
v -60.9379 -70 54.8687
f 112//8 86//8 113//8 
v -10.5304 -70 55.7301
f 113//8 86//8 114//8 
v -57.9828 -70 57.9828
f 113//8 114//8 115//8 
v -11.5115 -70 59.3441
f 115//8 114//8 116//8 
v -54.8687 -70 60.9379
f 115//8 116//8 117//8 
v -13.1126 -70 62.7293
f 117//8 116//8 118//8 
v -51.6043 -70 63.726
f 117//8 118//8 119//8 
v -15.2838 -70 65.7803
f 119//8 118//8 120//8 
v -48.1984 -70 66.3394
f 119//8 120//8 121//8 
v -17.9576 -70 68.4021
f 121//8 120//8 122//8 
v -44.6604 -70 68.771
f 121//8 122//8 123//8 
v -21.0507 -70 70.5131
f 123//8 122//8 124//8 
v -42.5051 -70 70.0917
f 123//8 124//8 125//8 
v -39.152 -70 71.759
f 125//8 124//8 126//8 
v -24.4667 -70 72.0474
f 126//8 124//8 127//8 
v -35.558 -70 72.8108
f 126//8 127//8 128//8 
v -28.0992 -70 72.9573
f 128//8 127//8 129//8 
v -31.8351 -70 73.2144
f 128//8 129//8 130//8 
vn 1 -6.03684e-16 8.34363e-16
f 25//9 86//9 84//9 
f 86//9 25//9 27//9 
vn 0.996099 -5.81247e-16 0.0882424
vn 0.984427 -5.54275e-16 0.175796
f 27//10 114//11 86//10 
f 114//11 27//10 55//11 
vn 0.634393 -5.58892e-16 -0.77301
f 12//6 73//12 11//6 
f 73//12 12//6 14//12 
vn 0.760406 -6.06844e-16 -0.649448
f 14//12 76//13 73//12 
f 76//13 14//12 17//13 
vn 0.862734 -6.35895e-16 -0.505657
f 17//13 78//14 76//13 
f 78//14 17//13 19//14 
vn 0.938191 -6.45139e-16 -0.346117
f 19//14 80//15 78//14 
f 80//15 19//14 21//15 
vn 0.984427 -6.34289e-16 -0.175796
f 21//15 82//16 80//15 
f 82//16 21//15 23//16 
vn 0.996099 -6.21411e-16 -0.0882424
f 23//16 84//17 82//16 
f 84//17 23//16 25//17 
vn 0.938191 -4.87603e-16 0.346117
f 55//11 116//18 114//11 
f 116//18 55//11 57//18 
vn 0.862734 -4.05743e-16 0.505657
f 57//18 118//19 116//18 
f 118//19 57//18 59//19 
vn 0.760406 -3.11246e-16 0.649448
f 59//19 120//20 118//19 
f 120//20 59//19 61//20 
vn 0.634393 -2.07054e-16 0.77301
f 120//20 63//21 122//21 
f 63//21 120//20 61//20 
vn 0.488621 -9.64131e-17 0.872496
f 122//21 65//22 124//22 
f 65//22 122//21 63//21 
vn 0.32763 1.72307e-17 0.944806
f 124//22 68//23 127//23 
f 68//23 124//22 65//22 
vn 0.156434 1.30338e-16 0.987688
f 127//23 70//24 129//24 
f 70//24 127//23 68//23 
vn -0.0196337 2.39385e-16 0.999807
f 129//24 71//25 130//25 
f 71//25 129//24 70//24 
vn -0.19509 3.40977e-16 0.980785
f 130//25 69//26 128//26 
f 69//26 130//25 71//25 
vn -0.364471 4.31948e-16 0.931215
f 128//26 67//27 126//27 
f 67//27 128//26 69//26 
vn -0.445221 4.7255e-16 0.895421
f 126//27 66//28 125//28 
f 66//28 126//27 67//27 
vn -0.522499 5.09465e-16 0.85264
vn -0.544639 5.19652e-16 0.838671
f 125//29 64//30 123//30 
f 64//30 125//29 66//29 
vn -0.587785 5.3895e-16 0.809017
f 123//30 62//31 121//31 
f 62//31 123//30 64//30 
vn -0.62932 5.56771e-16 0.777146
f 121//31 60//32 119//32 
f 60//32 121//31 62//31 
vn -0.669131 5.73066e-16 0.743145
f 119//32 58//33 117//33 
f 58//33 119//32 60//32 
vn -0.707107 5.8779e-16 0.707107
f 117//33 56//34 115//34 
f 56//34 117//33 58//33 
vn -0.743145 6.00903e-16 0.669131
f 115//34 54//35 113//35 
f 54//35 115//34 56//34 
vn -0.777146 6.12369e-16 0.62932
f 54//35 112//36 113//35 
f 112//36 54//35 53//36 
vn -0.809017 6.22157e-16 0.587785
f 53//36 111//37 112//36 
f 111//37 53//36 52//37 
vn -0.838671 6.30239e-16 0.544639
f 52//37 110//38 111//37 
f 110//38 52//37 51//38 
vn -0.866025 6.36594e-16 0.5
f 51//38 109//39 110//38 
f 109//39 51//38 50//39 
vn -0.891007 6.41204e-16 0.45399
f 50//39 108//40 109//39 
f 108//40 50//39 49//40 
vn -0.913545 6.44056e-16 0.406737
f 49//40 107//41 108//40 
f 107//41 49//40 48//41 
vn -0.93358 6.45143e-16 0.358368
f 48//41 106//42 107//41 
f 106//42 48//41 47//42 
vn -0.951057 6.44462e-16 0.309017
f 47//42 105//43 106//42 
f 105//43 47//42 46//43 
vn -0.965926 6.42015e-16 0.258819
f 46//43 104//44 105//43 
f 104//44 46//43 45//44 
vn -0.978148 6.37808e-16 0.207912
f 45//44 103//45 104//44 
f 103//45 45//44 44//45 
vn -0.987688 6.31852e-16 0.156434
f 44//45 102//46 103//45 
f 102//46 44//45 43//46 
vn -0.994522 6.24165e-16 0.104528
f 43//46 101//47 102//46 
f 101//47 43//46 42//47 
vn -0.99863 6.14767e-16 0.052336
f 42//47 100//48 101//47 
f 100//48 42//47 41//48 
vn -1 6.03684e-16 -9.87636e-16
f 41//48 99//49 100//48 
vn -1 6.03684e-16 -9.78798e-16
f 99//49 41//48 40//50 
vn -0.99863 5.90946e-16 -0.052336
f 40//50 98//51 99//49 
f 98//51 40//50 39//51 
vn -0.994522 5.76589e-16 -0.104528
f 39//51 97//52 98//51 
f 97//52 39//51 38//52 
vn -0.987688 5.60651e-16 -0.156434
f 38//52 96//53 97//52 
f 96//53 38//52 37//53 
vn -0.978148 5.43176e-16 -0.207912
f 37//53 95//54 96//53 
f 95//54 37//53 36//54 
vn -0.965926 5.24213e-16 -0.258819
f 36//54 94//55 95//54 
f 94//55 36//54 35//55 
vn -0.951057 5.03812e-16 -0.309017
f 35//55 93//56 94//55 
f 93//56 35//55 34//56 
vn -0.93358 4.82031e-16 -0.358368
f 93//56 33//57 92//57 
f 33//57 93//56 34//56 
vn -0.913545 4.58929e-16 -0.406737
f 33//57 91//58 92//57 
f 91//58 33//57 32//58 
vn -0.891007 4.34569e-16 -0.45399
f 32//58 90//59 91//58 
f 90//59 32//58 31//59 
vn -0.866025 4.09017e-16 -0.5
f 31//59 89//60 90//59 
f 89//60 31//59 30//60 
vn -0.838671 3.82345e-16 -0.544639
f 30//60 88//61 89//60 
f 88//61 30//60 29//61 
vn -0.809017 3.54624e-16 -0.587785
f 29//61 87//62 88//61 
f 87//62 29//61 28//62 
vn -0.777146 3.25932e-16 -0.62932
f 28//62 85//63 87//62 
f 85//63 28//62 26//63 
vn -0.743145 2.96346e-16 -0.669131
f 26//63 83//64 85//63 
f 83//64 26//63 24//64 
vn -0.707107 2.65948e-16 -0.707107
f 24//64 81//65 83//64 
f 81//65 24//64 22//65 
vn -0.669131 2.34821e-16 -0.743145
f 22//65 79//66 81//65 
f 79//66 22//65 20//66 
vn -0.62932 2.0305e-16 -0.777146
f 20//66 77//67 79//66 
f 77//67 20//66 18//67 
vn -0.587785 1.70723e-16 -0.809017
f 18//67 75//68 77//67 
f 75//68 18//67 16//68 
vn -0.544639 1.37928e-16 -0.838671
f 16//68 74//69 75//68 
f 74//69 16//68 15//69 
vn -0.522499 1.21383e-16 -0.85264
f 15//69 72//70 74//69 
f 72//70 15//69 13//70 
vn -0.445221 6.49961e-17 -0.895421
f 13//71 3//1 72//71 
f 3//1 13//71 1//1 
