s 1
o 
g 
usemtl Layer_Layer0
v 36.4456 -19.8 -64.2326
v 35.2 -10.2 -64.2
v 35.2 -19.8 -64.2
vn 0.052336 -5.86335e-16 0.99863
vn -1.14893e-16 -5.87492e-16 1
vn -1.17102e-16 -5.87492e-16 1
f 1//1 2//2 3//3 
v 36.4456 -10.2 -64.2326
f 2//2 1//1 4//1 
v 33.9649 -10.2 -68.7677
v 36.4351 -10.2 -68.7677
v 35.2 -10.2 -68.8
vn -2.12157e-30 1 2.85e-15
f 5//4 6//4 7//4 
v 32.7331 -10.2 -68.6707
f 6//4 5//4 8//4 
v 37.6669 -10.2 -68.6707
f 6//4 8//4 9//4 
v 31.5081 -10.2 -68.5094
f 9//4 8//4 10//4 
v 38.8919 -10.2 -68.5094
f 9//4 10//4 11//4 
v 30.4 -10.2 -68.3041
f 11//4 10//4 12//4 
v 40 -10.2 -68.3041
f 11//4 12//4 13//4 
v 30.4 -10.2 -64.6926
f 13//4 12//4 14//4 
v 40 -10.2 -64.6926
f 13//4 14//4 15//4 
v 31.4769 -10.2 -64.493
f 15//4 14//4 16//4 
v 38.9231 -10.2 -64.493
f 15//4 16//4 17//4 
v 32.7122 -10.2 -64.3304
f 17//4 16//4 18//4 
v 37.6878 -10.2 -64.3304
f 17//4 18//4 19//4 
v 33.9544 -10.2 -64.2326
f 19//4 18//4 20//4 
f 19//4 20//4 4//4 
f 4//4 20//4 2//4 
v 37.6878 -19.8 -64.3304
vn 0.104528 -2.92493e-16 0.994522
f 21//5 4//1 1//1 
f 4//1 21//5 19//5 
v 38.9231 -19.8 -64.493
vn 0.156434 -2.88889e-16 0.987688
f 22//6 19//5 21//5 
f 19//5 22//6 17//6 
v 37.6669 -19.8 -68.6707
vn 0.156434 1.15854e-15 -0.987688
vn 0.104528 2.91855e-16 -0.994522
f 11//7 23//8 9//8 
v 38.8919 -19.8 -68.5094
f 23//8 11//7 24//7 
v 36.4351 -19.8 -68.7677
vn 0.052336 1.49769e-19 -0.99863
f 9//8 25//9 6//9 
f 25//9 9//8 23//8 
v 35.2 -19.8 -68.8
vn -1.19312e-16 -9.72696e-21 -1
vn -1.17102e-16 -9.72696e-21 -1
f 6//9 26//10 7//11 
f 26//10 6//9 25//9 
v 33.9649 -19.8 -68.7677
vn -0.052336 1.49769e-19 -0.99863
f 7//11 27//12 5//12 
f 27//12 7//11 26//10 
v 32.7331 -19.8 -68.6707
vn -0.104528 2.91459e-16 -0.994522
f 5//12 28//13 8//13 
f 28//13 5//12 27//12 
v 31.5081 -19.8 -68.5094
vn -0.156434 1.15777e-15 -0.987688
f 8//13 29//14 10//14 
f 29//14 8//13 28//13 
v 30.4 -19.8 -68.3041
vn -0.182236 1.73235e-15 -0.983255
f 10//14 30//15 12//15 
f 30//15 10//14 29//14 
v 30.4 -19.8 -64.6926
vn -1 0 0
f 14//16 30//16 31//16 
f 30//16 14//16 12//16 
vn -3.90601e-30 -1 -4.51451e-15
f 25//17 27//17 26//17 
f 27//17 25//17 23//17 
f 27//17 23//17 28//17 
f 28//17 23//17 24//17 
f 28//17 24//17 29//17 
v 40 -19.8 -68.3041
f 29//17 24//17 32//17 
f 29//17 32//17 30//17 
v 40 -19.8 -64.6926
f 30//17 32//17 33//17 
f 30//17 33//17 31//17 
f 31//17 33//17 22//17 
v 31.4769 -19.8 -64.493
f 31//17 22//17 34//17 
f 34//17 22//17 21//17 
v 32.7122 -19.8 -64.3304
f 34//17 21//17 35//17 
f 35//17 21//17 1//17 
v 33.9544 -19.8 -64.2326
f 35//17 1//17 36//17 
f 36//17 1//17 3//17 
vn -0.156434 -2.89285e-16 0.987688
vn -0.182236 -5.77851e-16 0.983255
f 34//18 14//19 31//19 
f 14//19 34//18 16//18 
vn 0.182236 1.73309e-15 -0.983255
f 13//20 24//7 11//7 
f 24//7 13//20 32//20 
vn 1 0 0
f 13//21 33//21 32//21 
f 33//21 13//21 15//21 
vn 0.182236 -5.77851e-16 0.983255
f 33//22 17//6 22//6 
f 17//6 33//22 15//22 
vn -0.052336 -5.86414e-16 0.99863
f 3//3 20//23 36//23 
f 20//23 3//3 2//2 
vn -0.104528 -2.92889e-16 0.994522
f 36//23 18//24 35//24 
f 18//24 36//23 20//23 
f 35//24 16//18 34//18 
f 16//18 35//24 18//24 
